<svg xmlns="http://www.w3.org/2000/svg" viewBox="0 0 404.29 404.29"><defs><style>.cls-1,.cls-2{fill:none;stroke-miterlimit:10;stroke-width:2px;}.cls-1{stroke:#0e4168;}.cls-2{stroke:#023f68;}.cls-3{fill:#6ff5d0;}</style></defs><title>NoFee</title><g id="Layer_2" data-name="Layer 2"><g id="Design"><circle class="cls-1" cx="202.15" cy="202.15" r="128.01"/><path class="cls-2" d="M16,1H387.75a15.54,15.54,0,0,1,15.54,15.54V387.75a15.54,15.54,0,0,1-15.54,15.54H16.54A15.54,15.54,0,0,1,1,387.75V16A15,15,0,0,1,16,1Z"/><circle class="cls-3" cx="202.15" cy="202.15" r="104.18"/><line class="cls-1" x1="292.64" y1="111.65" x2="111.65" y2="292.64"/><path class="cls-1" d="M184.1,267q-17-1.17-31.85-3.07V230.46q20.28,1.65,33.26,1.65,12.75,0,17.11-.36c2.91-.23,4.72-.71,5.42-1.41s1.06-2.09,1.06-4.13a5,5,0,0,0-.47-2.6,3.91,3.91,0,0,0-2.24-1.18q-1.77-.47-6.25-1.18l-16-2.12q-15.81-2.12-23.48-7.55a24.27,24.27,0,0,1-9.9-13.56q-2.25-8.15-2.24-21.83,0-19.58,9.2-27.95t26.42-10V119.1h36.8V138A174.67,174.67,0,0,1,249.21,141v33.5q-24.3-1.65-32.08-1.65-11.32,0-15.46.24t-5.3,1.18a4,4,0,0,0-1.18,3.3,6.39,6.39,0,0,0,.47,2.95,3.53,3.53,0,0,0,2.24,1.3q1.77.46,6.49,1.18l18.4,2.12Q235,186.81,241.9,190t10.38,11.44q3.54,8.26,3.54,23.82,0,22.43-9,31.38T220.9,267v18.17H184.1Z"/></g></g></svg>