<?xml version="1.0" encoding="utf-8"?>
<!-- Generator: Adobe Illustrator 20.1.0, SVG Export Plug-In . SVG Version: 6.00 Build 0)  -->
<svg version="1.1" id="Layer_1" xmlns="http://www.w3.org/2000/svg" xmlns:xlink="http://www.w3.org/1999/xlink" x="0px" y="0px"
	 viewBox="0 0 340 340" style="enable-background:new 0 0 340 340;" xml:space="preserve">
<style type="text/css">
	.st0{fill:#FFFFFF;stroke:#0E4168;stroke-width:2;stroke-miterlimit:10;}
	.st1{fill:#72C7AE;}
</style>
<circle class="st0" cx="170" cy="170" r="166"/>
<path class="st0" d="M279.3,149c-5.6-8.7-17.2-11.1-25.9-5.5l-69.8,45.3c-8.7,5.6-11.1,17.2-5.5,25.9c5.6,8.7,17.2,11.1,25.9,5.5
	l69.8-45.3C282.5,169.3,285,157.7,279.3,149z"/>
<path class="st1" d="M193.9,216.2c-4,0-7.6-2-9.8-5.3c-3.5-5.4-2-12.6,3.4-16.1l69.8-45.3c1.9-1.2,4.1-1.9,6.3-1.9
	c4,0,7.6,2,9.8,5.3c1.7,2.6,2.3,5.7,1.6,8.8c-0.6,3-2.4,5.7-5,7.3l-69.8,45.3C198.3,215.5,196.2,216.2,193.9,216.2z"/>
<path class="st0" d="M145.2,133.7c-7.6,5-9.8,15.2-4.8,22.8l30.9,47.6c5,7.6,15.2,9.8,22.8,4.8s9.8-15.2,4.8-22.8L168,138.5
	C163.1,130.9,152.9,128.7,145.2,133.7z"/>
<path class="st0" d="M172.9,115.7c-7.6,5-9.8,15.2-4.8,22.8l30.9,47.6c5,7.6,15.2,9.8,22.8,4.8c7.6-5,9.8-15.2,4.8-22.8l-30.9-47.6
	C190.7,112.9,180.5,110.8,172.9,115.7z"/>
<path class="st0" d="M117.6,151.6c-7.6,5-9.8,15.2-4.8,22.8l30.9,47.6c5,7.6,15.2,9.8,22.8,4.8s9.8-15.2,4.8-22.8l-30.9-47.6
	C135.4,148.9,125.2,146.7,117.6,151.6z"/>
<path class="st0" d="M67.3,134.7c-7.6,5-9.8,15.2-4.8,22.8l39.9,61.4c5,7.6,15.2,9.8,22.8,4.8s9.8-15.2,4.8-22.8l-39.9-61.4
	C85.1,131.9,74.9,129.8,67.3,134.7z"/>
<path class="st1" d="M185.1,204.5c-3.2,0-6.2-1.6-7.9-4.3l-30.9-47.6c-1.4-2.1-1.8-4.6-1.3-7.1c0.5-2.5,2-4.6,4.1-5.9
	c1.5-1,3.3-1.5,5.1-1.5c3.2,0,6.2,1.6,7.9,4.3L193,190c2.8,4.4,1.6,10.2-2.8,13C188.7,204,187,204.5,185.1,204.5z"/>
<path class="st1" d="M212.8,186.6c-3.2,0-6.2-1.6-7.9-4.3L174,134.7c-2.8-4.4-1.6-10.2,2.8-13c1.5-1,3.3-1.5,5.1-1.5
	c3.2,0,6.2,1.6,7.9,4.3l30.9,47.6c1.4,2.1,1.8,4.6,1.3,7.1c-0.5,2.5-2,4.6-4.1,5.9C216.4,186.1,214.6,186.6,212.8,186.6z"/>
<path class="st1" d="M157.5,222.5c-3.2,0-6.2-1.6-7.9-4.3l-30.9-47.6c-2.8-4.4-1.6-10.2,2.8-13c1.5-1,3.3-1.5,5.1-1.5
	c3.2,0,6.2,1.6,7.9,4.3l30.9,47.6c2.8,4.4,1.6,10.2-2.8,13C161.1,222,159.3,222.5,157.5,222.5z"/>
<path class="st1" d="M116.2,219.4c-3.2,0-6.2-1.6-7.9-4.3l-39.9-61.4c-2.8-4.4-1.6-10.2,2.8-13c1.5-1,3.3-1.5,5.1-1.5
	c3.2,0,6.2,1.6,7.9,4.3l39.9,61.4c1.4,2.1,1.8,4.6,1.3,7.1s-2,4.6-4.1,5.9C119.7,218.9,118,219.4,116.2,219.4z"/>
</svg>
