<svg xmlns="http://www.w3.org/2000/svg" viewBox="0 0 257.55 257.55"><defs><style>.cls-1{fill:none;stroke:#023f68;stroke-miterlimit:10;stroke-width:1.55px;}.cls-2{fill:#3ff2c1;}</style></defs><title>LegacySystem</title><g id="Layer_2" data-name="Layer 2"><g id="Design"><circle class="cls-1" cx="128.77" cy="128.77" r="128"/><rect class="cls-1" x="43.96" y="71.01" width="169.64" height="115.53"/><rect class="cls-1" x="57.08" y="82.47" width="143.39" height="92.61" rx="17.23" ry="17.23"/><path class="cls-1" d="M139.69,71H117.86a10.92,10.92,0,1,1,21.83,0Z"/><path class="cls-1" d="M67.05,186.54s-9.17,17.91-6.71,19.67,22.58-19.67,22.58-19.67"/><path class="cls-1" d="M187.17,186.54s9.17,17.91,6.7,19.67-22.57-19.67-22.57-19.67"/><line class="cls-1" x1="121.49" y1="62.69" x2="101.22" y2="42.42"/><line class="cls-1" x1="137.26" y1="62.69" x2="157.53" y2="42.42"/><circle class="cls-2" cx="128.77" cy="128.77" r="28.16"/><circle class="cls-1" cx="128.77" cy="128.77" r="33.52"/><line class="cls-1" x1="115.23" y1="136.17" x2="142.31" y2="136.17"/><polyline class="cls-1" points="136.94 139.87 142.31 136.17 136.94 132.46"/><rect class="cls-2" x="134.95" y="131.73" width="3.55" height="1.71" transform="translate(4.14 269.31) rotate(-90)"/><rect class="cls-2" x="134.95" y="138.89" width="3.55" height="1.71" transform="translate(-3.02 276.47) rotate(-90)"/><line class="cls-1" x1="142.31" y1="121.38" x2="115.23" y2="121.38"/><polyline class="cls-1" points="120.61 117.68 115.23 121.38 120.61 125.08"/><rect class="cls-2" x="119.04" y="124.11" width="3.55" height="1.71" transform="translate(245.78 4.14) rotate(90)"/><rect class="cls-2" x="119.04" y="116.94" width="3.55" height="1.71" transform="translate(238.62 -3.02) rotate(90)"/></g></g></svg>