<?xml version="1.0" encoding="utf-8"?>
<!-- Generator: Adobe Illustrator 20.1.0, SVG Export Plug-In . SVG Version: 6.00 Build 0)  -->
<svg version="1.1" id="Layer_1" xmlns="http://www.w3.org/2000/svg" xmlns:xlink="http://www.w3.org/1999/xlink" x="0px" y="0px"
	 viewBox="0 0 270 270" style="enable-background:new 0 0 270 270;" xml:space="preserve">
<style type="text/css">
	.st0{fill:none;stroke:#0E4168;stroke-width:1.5468;stroke-miterlimit:10;}
	.st1{fill:#72C7AE;}
</style>
<circle class="st0" cx="135" cy="135" r="128"/>
<polygon class="st0" points="206.1,110.1 188.1,92.1 81.9,92.1 63.9,110.1 63.9,185 81.9,203 188.1,203 206.1,185 "/>
<path class="st0" d="M168.5,92.1V75.4c0-18.5-15-33.5-33.5-33.5s-33.5,15-33.5,33.5v16.7"/>
<path class="st0" d="M168.5,92.1V75.4c0-18.5-15-33.5-33.5-33.5s-33.5,15-33.5,33.5v16.7"/>
<circle class="st1" cx="135" cy="147.5" r="33.5"/>
<circle class="st0" cx="135" cy="147.5" r="43.9"/>
<polygon class="st0" points="124.8,127 124.8,168.1 154.6,147.5 "/>
</svg>
