<?xml version="1.0" encoding="utf-8"?>
<!-- Generator: Adobe Illustrator 20.1.0, SVG Export Plug-In . SVG Version: 6.00 Build 0)  -->
<svg version="1.1" id="Layer_1" xmlns="http://www.w3.org/2000/svg" xmlns:xlink="http://www.w3.org/1999/xlink" x="0px" y="0px"
	 viewBox="0 0 340 340" style="enable-background:new 0 0 340 340;" xml:space="preserve">
<style type="text/css">
	.st0{fill:none;stroke:#0E4168;stroke-width:2;stroke-miterlimit:10;}
	.st1{fill:#FFFFFF;stroke:#0E4168;stroke-width:2;stroke-miterlimit:10;}
	.st2{fill:#72C7AE;}
</style>
<path class="st0" d="M92.8,159.5l9.6-8.7c1.4-1.3,2-3.1,1.6-5l-2.6-12.7c-0.6-2.7,1-5.3,3.7-6.1l12.4-3.7c1.8-0.5,3.2-2,3.6-3.8
	l3.1-12.5c0.7-2.7,3.2-4.4,6-3.9l12.8,2.1c1.8,0.3,3.7-0.4,4.9-1.8l8.3-9.9c1.7-2.1,4.8-2.5,7.1-1l10.6,7.4c1.5,1.1,3.5,1.2,5.2,0.5
	l11.8-5.4c2.5-1.1,5.4-0.2,6.8,2.2l6.3,11.3c0.9,1.6,2.6,2.6,4.5,2.7l12.9,0.3c2.7,0.1,5,2.2,5.2,4.9l0.8,12.9
	c0.1,1.9,1.2,3.5,2.9,4.4l11.5,5.8c2.4,1.2,3.5,4.1,2.5,6.7l-4.9,12c-0.7,1.7-0.4,3.7,0.7,5.2l7.9,10.3c1.7,2.2,1.4,5.3-0.6,7.1
	l-9.6,8.7c-1.4,1.3-2,3.1-1.6,5l2.6,12.7c0.6,2.7-1,5.3-3.7,6.1l-12.4,3.7c-1.8,0.5-3.2,2-3.6,3.8l-3.1,12.5c-0.7,2.7-3.2,4.4-6,3.9
	l-12.8-2.1c-1.8-0.3-3.7,0.4-4.9,1.8l-8.3,9.9c-1.7,2.1-4.8,2.5-7.1,1l-10.6-7.4c-1.5-1.1-3.5-1.2-5.2-0.5l-11.8,5.4
	c-2.5,1.1-5.4,0.2-6.8-2.2l-6.3-11.3c-0.9-1.6-2.6-2.6-4.5-2.7l-12.9-0.3c-2.7-0.1-5-2.2-5.2-4.9l-0.8-12.9
	c-0.1-1.9-1.2-3.5-2.9-4.4l-11.5-5.8c-2.4-1.2-3.5-4.1-2.5-6.7l4.9-12c0.7-1.7,0.4-3.7-0.7-5.2l-7.9-10.3
	C90.5,164.4,90.8,161.3,92.8,159.5z"/>
<rect x="72.8" y="72.8" class="st0" width="194.4" height="194.4"/>
<circle class="st0" cx="170" cy="170" r="166"/>
<g>
	<rect x="47.6" y="153.8" class="st1" width="107.7" height="47.1"/>
	<line class="st0" x1="72.4" y1="139.1" x2="47.6" y2="153.8"/>
	
		<rect x="184.6" y="153.8" transform="matrix(-1 -4.483759e-11 4.483759e-11 -1 476.9801 354.6512)" class="st1" width="107.7" height="47.1"/>
	<line class="st0" x1="267.6" y1="139.1" x2="292.4" y2="153.8"/>
</g>
<circle class="st1" cx="170" cy="170" r="58.6"/>
<circle class="st2" cx="170" cy="170" r="51"/>
<g>
	<circle class="st0" cx="170.7" cy="148" r="7.3"/>
	<polyline class="st0" points="162,196.2 170.7,196.2 170.7,155.3 	"/>
	<line class="st0" x1="170.7" y1="180.8" x2="162" y2="180.8"/>
	<line class="st0" x1="163.8" y1="188.5" x2="170.7" y2="188.5"/>
</g>
</svg>
