<?xml version="1.0" encoding="utf-8"?>
<!-- Generator: Adobe Illustrator 20.1.0, SVG Export Plug-In . SVG Version: 6.00 Build 0)  -->
<svg version="1.1" id="Layer_1" xmlns="http://www.w3.org/2000/svg" xmlns:xlink="http://www.w3.org/1999/xlink" x="0px" y="0px"
	 viewBox="0 0 340 340" style="enable-background:new 0 0 340 340;" xml:space="preserve">
<style type="text/css">
	.st0{fill:none;stroke:#0E4168;stroke-width:2;stroke-miterlimit:10;}
	.st1{fill:#72C7AE;}
</style>
<circle class="st0" cx="170" cy="170" r="166"/>
<g>
	<line class="st0" x1="170" y1="97.8" x2="170" y2="37.2"/>
	<polyline class="st0" points="182.9,83.6 170,97.8 157.1,83.6 	"/>
</g>
<g>
	<line class="st0" x1="170" y1="242.2" x2="170" y2="302.8"/>
	<polyline class="st0" points="157.1,256.4 170,242.2 182.9,256.4 	"/>
</g>
<g>
	<g>
		<line class="st0" x1="72" y1="170" x2="25.7" y2="170"/>
		<polyline class="st0" points="57.8,157.1 72,170 57.8,182.9 		"/>
	</g>
	<g>
		<line class="st0" x1="268" y1="170" x2="314.3" y2="170"/>
		<polyline class="st0" points="282.2,182.9 268,170 282.2,157.1 		"/>
	</g>
</g>
<rect x="86.6" y="108.5" class="st0" width="166.7" height="122.9"/>
<circle class="st1" cx="170" cy="170" r="41.6"/>
<polygon class="st0" points="160.2,148.6 160.2,193.5 192.7,171 "/>
<circle class="st0" cx="170" cy="170" r="48.6"/>
</svg>
