<?xml version="1.0" encoding="utf-8"?>
<!-- Generator: Adobe Illustrator 22.1.0, SVG Export Plug-In . SVG Version: 6.00 Build 0)  -->
<svg version="1.1" id="Layer_1" xmlns="http://www.w3.org/2000/svg" xmlns:xlink="http://www.w3.org/1999/xlink" x="0px" y="0px"
	 viewBox="0 0 258 258" style="enable-background:new 0 0 258 258;" xml:space="preserve">
<style type="text/css">
	.st0{fill:none;stroke:#0E4168;stroke-width:2;stroke-miterlimit:10;}
	.st1{fill:#FFFFFF;}
	.st2{enable-background:new    ;}
	.st3{fill:#0E4168;}
</style>
<title>GenreralQs</title>
<g id="Layer_2_1_">
	<g id="Design">
		<circle class="st0" cx="129" cy="129" r="128"/>
		<circle class="st0" cx="131.1" cy="99.8" r="40.2"/>
		<circle class="st1" cx="131.1" cy="99.8" r="32.2"/>
		<circle class="st0" cx="92" cy="184.9" r="15.7"/>
		<circle class="st0" cx="113.9" cy="219.7" r="12.1"/>
		<g class="st2">
			<path class="st3" d="M127.3,106c0-1.3,0.1-2.2,0.4-2.9s0.7-1.2,1.2-1.6c0.5-0.4,1.4-0.7,2.5-1.1l1.6-0.6c1.4-0.5,2.5-1,3.1-1.4
				c0.6-0.4,1.1-1,1.3-1.8c0.2-0.8,0.3-1.9,0.3-3.5c0-1.8-0.2-3.1-0.7-3.9c-0.5-0.8-1.3-1.4-2.4-1.6c-1.1-0.3-2.7-0.4-4.9-0.4
				c-2.3,0-5.2,0.2-8.5,0.6V85c1.4-0.2,3-0.4,4.8-0.6c1.8-0.1,3.3-0.2,4.7-0.2c2.5,0,4.5,0.3,6,0.8c1.5,0.5,2.6,1.4,3.3,2.7
				c0.7,1.3,1.1,3,1.1,5.2c0,2.5-0.3,4.4-0.8,5.8c-0.6,1.3-1.8,2.3-3.6,3l-1.5,0.5c-1.7,0.6-2.8,1.1-3.4,1.4
				c-0.6,0.3-0.9,0.6-1.1,1.1c-0.2,0.4-0.3,1.1-0.3,2.1v3.6h-3V106z M126.9,120v-4.4h3.8v4.4H126.9z"/>
		</g>
		<path class="st0" d="M200,99.8c0-9.4-4.6-18.1-12.4-23.4c2.9-15.3-7.2-30.2-22.5-33.1c-3.5-0.7-7.1-0.7-10.6,0
			c-8.8-12.9-26.4-16.3-39.3-7.5c-3,2-5.5,4.6-7.5,7.5c-15.3-2.9-30.2,7.1-33.1,22.5c-0.7,3.5-0.7,7.1,0,10.6
			c-12.9,8.8-16.3,26.4-7.5,39.3c2,2.9,4.5,5.5,7.5,7.5c-2.9,15.4,7.2,30.2,22.5,33.1c3.5,0.7,7.1,0.7,10.6,0
			c8.8,12.9,26.4,16.3,39.3,7.5c2.9-2,5.5-4.5,7.5-7.5c15.4,2.9,30.2-7.2,33.1-22.5c0.7-3.5,0.7-7.1,0-10.6
			C195.4,117.9,200,109.1,200,99.8z"/>
	</g>
</g>
</svg>
