<svg xmlns="http://www.w3.org/2000/svg" viewBox="0 0 333.94 333.94"><defs><style>.cls-1{fill:none;}.cls-1,.cls-2{stroke:#023f68;stroke-miterlimit:10;stroke-width:2px;}.cls-2{fill:#fff;}.cls-3{fill:#3ff2c1;}</style></defs><title>DRM</title><g id="Layer_2" data-name="Layer 2"><g id="Design"><path class="cls-1" d="M89.82,156.43l9.57-8.69a5.26,5.26,0,0,0,1.61-5l-2.63-12.65A5.28,5.28,0,0,1,102,124l12.39-3.68a5.26,5.26,0,0,0,3.62-3.77L121.16,104a5.26,5.26,0,0,1,6-3.93l12.76,2.06a5.26,5.26,0,0,0,4.89-1.83l8.25-10a5.27,5.27,0,0,1,7.07-1l10.6,7.39a5.24,5.24,0,0,0,5.2.47l11.75-5.38a5.26,5.26,0,0,1,6.78,2.21l6.34,11.26a5.25,5.25,0,0,0,4.49,2.68l12.92.25a5.27,5.27,0,0,1,5.15,4.93l.83,12.9a5.25,5.25,0,0,0,2.88,4.36l11.53,5.84a5.26,5.26,0,0,1,2.5,6.67l-4.85,12a5.28,5.28,0,0,0,.7,5.18l7.86,10.26a5.26,5.26,0,0,1-.64,7.1l-9.57,8.69a5.26,5.26,0,0,0-1.61,5l2.63,12.65a5.28,5.28,0,0,1-3.66,6.12l-12.39,3.68a5.26,5.26,0,0,0-3.62,3.77l-3.12,12.54a5.26,5.26,0,0,1-5.95,3.93l-12.75-2.06a5.27,5.27,0,0,0-4.9,1.83l-8.25,10a5.27,5.27,0,0,1-7.07.95l-10.6-7.39a5.24,5.24,0,0,0-5.2-.47l-11.75,5.38a5.26,5.26,0,0,1-6.78-2.21l-6.34-11.26a5.25,5.25,0,0,0-4.49-2.68l-12.92-.25a5.27,5.27,0,0,1-5.15-4.93l-.83-12.9a5.25,5.25,0,0,0-2.88-4.36l-11.53-5.83a5.27,5.27,0,0,1-2.5-6.68l4.85-12a5.28,5.28,0,0,0-.7-5.18l-7.86-10.26A5.26,5.26,0,0,1,89.82,156.43Z"/><rect class="cls-1" x="69.79" y="69.79" width="194.35" height="194.35"/><circle class="cls-1" cx="166.97" cy="166.97" r="165.97"/><rect class="cls-2" x="44.61" y="150.76" width="107.75" height="47.07"/><line class="cls-1" x1="69.35" y1="136.11" x2="44.61" y2="150.76"/><rect class="cls-2" x="181.59" y="150.76" width="107.75" height="47.07" transform="translate(470.92 348.59) rotate(-180)"/><line class="cls-1" x1="264.59" y1="136.11" x2="289.34" y2="150.76"/><circle class="cls-2" cx="166.97" cy="166.97" r="58.57"/><circle class="cls-3" cx="166.97" cy="166.97" r="51.05"/><circle class="cls-1" cx="167.66" cy="144.99" r="7.28"/><polyline class="cls-1" points="159.01 193.16 167.66 193.16 167.66 152.27"/><line class="cls-1" x1="167.66" y1="177.74" x2="159.01" y2="177.74"/><line class="cls-1" x1="160.82" y1="185.52" x2="167.66" y2="185.52"/></g></g></svg>