<svg xmlns="http://www.w3.org/2000/svg" viewBox="0 0 333.94 333.94"><defs><style>.cls-1{fill:none;}.cls-1,.cls-2{stroke:#023f68;stroke-miterlimit:10;stroke-width:2px;}.cls-2{fill:#fff;}.cls-3{fill:#3ff2c1;}</style></defs><title>Shaka</title><g id="Layer_2" data-name="Layer 2"><g id="Design"><circle class="cls-1" cx="166.97" cy="166.97" r="165.97"/><path class="cls-2" d="M276.31,146a18.72,18.72,0,0,0-25.89-5.51L180.66,185.8a18.72,18.72,0,1,0,20.39,31.39l69.76-45.3A18.71,18.71,0,0,0,276.31,146Z"/><path class="cls-3" d="M190.87,213.13a11.65,11.65,0,0,1-6.35-21.41l69.75-45.3A11.64,11.64,0,1,1,267,166l-69.75,45.3A11.58,11.58,0,0,1,190.87,213.13Z"/><path class="cls-2" d="M142.19,130.65a16.49,16.49,0,0,0-4.85,22.81l30.92,47.62a16.49,16.49,0,0,0,27.65-18L165,135.5A16.5,16.5,0,0,0,142.19,130.65Z"/><path class="cls-2" d="M169.84,112.7A16.48,16.48,0,0,0,165,135.5l30.92,47.62a16.49,16.49,0,1,0,27.66-18l-30.92-47.62A16.49,16.49,0,0,0,169.84,112.7Z"/><path class="cls-2" d="M114.53,148.61a16.49,16.49,0,0,0-4.84,22.81L140.61,219a16.49,16.49,0,0,0,27.65-18l-30.92-47.62A16.49,16.49,0,0,0,114.53,148.61Z"/><path class="cls-2" d="M64.22,131.69a16.48,16.48,0,0,0-4.84,22.8l39.9,61.45a16.49,16.49,0,0,0,27.65-18L87,136.53A16.49,16.49,0,0,0,64.22,131.69Z"/><path class="cls-3" d="M182.11,201.5a9.41,9.41,0,0,1-7.91-4.28l-30.92-47.61a9.41,9.41,0,1,1,15.79-10.25L190,187a9.4,9.4,0,0,1-7.88,14.53Z"/><path class="cls-3" d="M209.76,183.55a9.42,9.42,0,0,1-7.91-4.29l-30.91-47.61a9.41,9.41,0,0,1,15.78-10.25L217.64,169a9.42,9.42,0,0,1-7.88,14.54Z"/><path class="cls-3" d="M154.46,219.46a9.41,9.41,0,0,1-7.91-4.28l-30.92-47.62a9.41,9.41,0,0,1,15.79-10.25l30.92,47.61a9.42,9.42,0,0,1-2.77,13A9.29,9.29,0,0,1,154.46,219.46Z"/><path class="cls-3" d="M113.13,216.36a9.38,9.38,0,0,1-7.9-4.29l-39.9-61.43a9.41,9.41,0,1,1,15.79-10.25L121,201.82a9.41,9.41,0,0,1-7.88,14.54Z"/></g></g></svg>