<?xml version="1.0" encoding="utf-8"?>
<!-- Generator: Adobe Illustrator 20.1.0, SVG Export Plug-In . SVG Version: 6.00 Build 0)  -->
<svg version="1.1" id="Layer_1" xmlns="http://www.w3.org/2000/svg" xmlns:xlink="http://www.w3.org/1999/xlink" x="0px" y="0px"
	 viewBox="0 0 470 240" style="enable-background:new 0 0 470 240;" xml:space="preserve">
<style type="text/css">
	.st0{fill:#FFFFFF;}
</style>
<path class="st0" d="M344.6,143.6h85.2L467.6,2.2h-94.2l-34.8,130c-1.9,7.2-8.2,11.3-14.3,11.3h-73.2c-6.4,0-10.7-3.6-12.3-9.5
	l-22.7-84.7l-87.3,87.3c-2.5,2.5-8.2,2-9.4-2.4l0,0L96.6,49.3H2.4l25.2,94.2h84.4c6.4,0,10.7,3.6,12.3,9.5l0,0l22.7,84.7l87.8-87.8
	c2.7-2.7,7.6-1.8,8.6,1.8l0,0l23,86h94.2l-22.7-84.6l0,0C336.7,148,339.3,143.6,344.6,143.6z"/>
</svg>
