<?xml version="1.0" encoding="utf-8"?>
<!-- Generator: Adobe Illustrator 19.1.0, SVG Export Plug-In . SVG Version: 6.00 Build 0)  -->
<svg version="1.1" id="Layer_1" xmlns="http://www.w3.org/2000/svg" xmlns:xlink="http://www.w3.org/1999/xlink" x="0px" y="0px"
	 viewBox="-378 289.419 34.581 34.581" enable-background="new -378 289.419 34.581 34.581" xml:space="preserve">
<g id="bottom">
	<path d="M-360.709,289.419c-9.549,0-17.291,7.742-17.291,17.291c0,9.551,7.742,17.291,17.291,17.291
		c9.55,0,17.291-7.74,17.291-17.291C-343.419,297.161-351.16,289.419-360.709,289.419z M-357.005,306.716h-2.423
		c0,3.871,0,8.639,0,8.639h-3.59c0,0,0-4.719,0-8.639h-1.708v-3.052h1.708v-1.976c0-1.414,0.671-3.624,3.623-3.624l2.66,0.011v2.963
		c0,0-1.617,0-1.93,0c-0.314,0-0.762,0.156-0.762,0.832v1.794h2.738L-357.005,306.716z"/>
</g>
<g id="Farming" display="none">
</g>
<g id="Manufacturing" display="none">
</g>
<g id="Waste_diverted">
</g>
<g id="jobs">
</g>
<g id="consumer_ed_hover">
</g>
<g id="pop_up" display="none">
</g>
</svg>
