<?xml version="1.0" encoding="utf-8"?>
<!-- Generator: Adobe Illustrator 20.1.0, SVG Export Plug-In . SVG Version: 6.00 Build 0)  -->
<svg version="1.1" id="Layer_1" xmlns="http://www.w3.org/2000/svg" xmlns:xlink="http://www.w3.org/1999/xlink" x="0px" y="0px"
	 viewBox="0 0 25 25" enable-background="new 0 0 25 25" xml:space="preserve">
<g>
	<g>
		<circle fill="#231F20" cx="12.5" cy="12.5" r="2.4"/>
		<path fill="#231F20" d="M17,7.7h-1.2c-0.18,0-0.3,0.12-0.3,0.3v1.2c0,0.18,0.12,0.3,0.3,0.3H17c0.18,0,0.3-0.12,0.3-0.3V8
			C17.3,7.82,17.18,7.7,17,7.7z"/>
		<path fill="#231F20" d="M16.1,12.5c0,1.98-1.62,3.6-3.6,3.6c-1.98,0-3.6-1.62-3.6-3.6c0-0.18,0-0.42,0.06-0.6H7.7V17
			c0,0.18,0.12,0.3,0.3,0.3h9c0.18,0,0.3-0.12,0.3-0.3v-5.1h-1.26C16.1,12.08,16.1,12.32,16.1,12.5z"/>
		<path fill="#231F20" d="M12.498,0.445c-6.656,0-12.053,5.396-12.053,12.054c0,6.658,5.396,12.057,12.053,12.057
			c6.66,0,12.056-5.399,12.056-12.057C24.554,5.84,19.159,0.445,12.498,0.445z M18.5,17.3c0,0.66-0.54,1.2-1.2,1.2H7.7
			c-0.66,0-1.2-0.54-1.2-1.2V7.7c0-0.66,0.54-1.2,1.2-1.2h9.6c0.66,0,1.2,0.54,1.2,1.2V17.3z"/>
	</g>
</g>
</svg>
