<svg xmlns="http://www.w3.org/2000/svg" viewBox="0 0 258.02 258.03"><defs><style>.cls-1{fill:none;stroke:#0e4168;stroke-miterlimit:10;stroke-width:2px;}.cls-2{fill:#3ff2c1;}</style></defs><title>TechSupport</title><g id="Layer_2" data-name="Layer 2"><g id="Design"><circle class="cls-1" cx="129.01" cy="129.01" r="128.01"/><path class="cls-1" d="M218.24,114.07V98.46L206.53,96a42.62,42.62,0,0,0-4.86-11.74l6.53-10-11-11-10,6.53a42.56,42.56,0,0,0-11.73-4.86l-2.48-11.71H157.31l-2.47,11.71a42.62,42.62,0,0,0-11.74,4.86l-10-6.53-11,11,6.53,10A42.62,42.62,0,0,0,123.7,96L112,98.46v15.61l11.71,2.48a42.62,42.62,0,0,0,4.86,11.74l-6.53,10,11,11,10-6.53a42,42,0,0,0,11.74,4.86l2.47,11.71h15.61l2.48-11.71a42,42,0,0,0,11.73-4.86l10,6.53,11-11-6.53-10a42.62,42.62,0,0,0,4.86-11.74Z"/><circle class="cls-1" cx="165.12" cy="106.27" r="27.58"/><circle class="cls-2" cx="165.12" cy="106.27" r="19.58" transform="translate(-28.1 71.28) rotate(-22.5)"/><path class="cls-1" d="M124.39,161.7V151.11l-11.31-3a31.75,31.75,0,0,0-3.19-7.69l5.86-10.15-7.49-7.49-10.15,5.86a31.82,31.82,0,0,0-7.7-3.19l-3-11.31H76.79l-3,11.31a31.75,31.75,0,0,0-7.69,3.19l-10.15-5.86-7.49,7.49,5.86,10.15a31.75,31.75,0,0,0-3.19,7.69l-11.31,3V161.7l11.31,3a31.82,31.82,0,0,0,3.19,7.7l-5.86,10.15,7.49,7.49,10.15-5.86a31.75,31.75,0,0,0,7.69,3.19l3,11.31H87.38l3-11.31a31.82,31.82,0,0,0,7.7-3.19l10.15,5.86,7.49-7.49-5.86-10.15a31.82,31.82,0,0,0,3.19-7.7Z"/><circle class="cls-1" cx="82.09" cy="156.41" r="19.89"/><path class="cls-2" d="M82.09,168.3a11.88,11.88,0,1,1,8.41-3.48A11.84,11.84,0,0,1,82.09,168.3Z"/></g></g></svg>