<svg xmlns="http://www.w3.org/2000/svg" viewBox="0 0 333.94 333.94"><defs><style>.cls-1{fill:none;stroke:#023f68;stroke-miterlimit:10;stroke-width:2px;}.cls-2{fill:#3ff2c1;}</style></defs><title>CAS</title><g id="Layer_2" data-name="Layer 2"><g id="Design"><circle class="cls-1" cx="166.97" cy="166.97" r="165.97"/><line class="cls-1" x1="166.97" y1="94.81" x2="166.97" y2="34.14"/><polyline class="cls-1" points="179.85 80.56 166.97 94.81 154.09 80.56"/><line class="cls-1" x1="166.97" y1="239.13" x2="166.97" y2="299.8"/><polyline class="cls-1" points="154.09 253.38 166.97 239.13 179.85 253.38"/><line class="cls-1" x1="69" y1="166.97" x2="22.65" y2="166.97"/><polyline class="cls-1" points="54.75 154.09 69 166.97 54.75 179.85"/><line class="cls-1" x1="264.94" y1="166.97" x2="311.29" y2="166.97"/><polyline class="cls-1" points="279.19 179.85 264.94 166.97 279.19 154.09"/><rect class="cls-1" x="83.62" y="105.5" width="166.71" height="122.93"/><circle class="cls-2" cx="166.97" cy="166.97" r="41.57"/><polygon class="cls-1" points="157.13 145.52 157.13 190.45 189.71 167.99 157.13 145.52"/><circle class="cls-1" cx="166.97" cy="166.97" r="48.62"/></g></g></svg>