<svg xmlns="http://www.w3.org/2000/svg" viewBox="0 0 258.02 258.03"><defs><style>.cls-1{fill:none;stroke:#0e4168;stroke-miterlimit:10;stroke-width:2px;}.cls-2{fill:#3ff2c1;}.cls-3{font-size:51.36px;fill:#0e4168;font-family:Saira-Light, Saira;}</style></defs><title>GenreralQs</title><g id="Layer_2" data-name="Layer 2"><g id="Design"><circle class="cls-1" cx="129.01" cy="129.01" r="128.01"/><circle class="cls-1" cx="131.13" cy="99.76" r="40.21"/><circle class="cls-2" cx="131.13" cy="99.76" r="32.21"/><circle class="cls-1" cx="91.96" cy="184.94" r="15.73"/><circle class="cls-1" cx="113.9" cy="219.66" r="12.1"/><text class="cls-3" transform="translate(119.16 119.96)">?</text><path class="cls-1" d="M200,99.76a28.28,28.28,0,0,0-12.39-23.4,28.29,28.29,0,0,0-33.08-33.08,28.29,28.29,0,0,0-46.8,0A28.29,28.29,0,0,0,74.64,76.36a28.3,28.3,0,0,0,0,46.8,28.3,28.3,0,0,0,33.09,33.09,28.3,28.3,0,0,0,46.79,0,28.3,28.3,0,0,0,33.09-33.09A28.25,28.25,0,0,0,200,99.76Z"/></g></g></svg>