<svg xmlns="http://www.w3.org/2000/svg" viewBox="0 0 333.94 333.94"><defs><style>.cls-1{fill:none;}.cls-1,.cls-2{stroke:#023f68;stroke-miterlimit:10;stroke-width:2px;}.cls-2,.cls-3{fill:#fff;}.cls-4{fill:#3ff2c1;}</style></defs><title>Training</title><g id="Layer_2" data-name="Layer 2"><g id="Design"><rect class="cls-1" x="57.36" y="74.87" width="219.21" height="176.11"/><line class="cls-2" x1="95.58" y1="137.35" x2="238.36" y2="137.35"/><line class="cls-2" x1="128.48" y1="118.04" x2="205.46" y2="118.04"/><line class="cls-2" x1="95.58" y1="156.67" x2="238.36" y2="156.67"/><circle class="cls-1" cx="166.97" cy="166.97" r="165.97"/><path class="cls-3" d="M166.87,237.57c0-2.75,3.1-5.73,2.64-8.35s-4.41-4.44-5.32-6.95.95-6.42-.39-8.74-5.66-2.64-7.39-4.7-1.28-6.35-3.35-8.09-6.2-.55-8.54-1.9-3.36-5.53-5.92-6.46-6,1.62-8.68,1.15-5-4-7.76-4-5.16,3.58-7.77,4-6.17-2.06-8.68-1.15-3.59,5.11-5.92,6.46-6.48.17-8.54,1.9-1.62,6-3.35,8.09-6,2.35-7.39,4.7.54,6.19-.39,8.74-4.85,4.26-5.32,6.95,2.64,5.6,2.64,8.35-3.1,5.73-2.64,8.35,4.41,4.44,5.32,7-1,6.42.39,8.75,5.66,2.63,7.39,4.7,1.28,6.35,3.35,8.08,6.2.55,8.54,1.91,3.36,5.52,5.92,6.45,6-1.61,8.68-1.14,5,4,7.77,4,5.15-3.57,7.76-4,6.17,2.06,8.68,1.14,3.59-5.11,5.92-6.45,6.48-.17,8.54-1.91,1.62-6,3.35-8.08,6-2.36,7.39-4.7-.54-6.19.39-8.75,4.85-4.26,5.32-7S166.87,240.32,166.87,237.57Z"/><path class="cls-1" d="M166.87,237.57c0-2.75,3.1-5.73,2.64-8.35s-4.41-4.44-5.32-6.95.95-6.42-.39-8.74-5.66-2.64-7.39-4.7-1.28-6.35-3.35-8.09-6.2-.55-8.54-1.9-3.36-5.53-5.92-6.46-6,1.62-8.68,1.15-5-4-7.76-4-5.16,3.58-7.77,4-6.17-2.06-8.68-1.15-3.59,5.11-5.92,6.46-6.48.17-8.54,1.9-1.62,6-3.35,8.09-6,2.35-7.39,4.7.54,6.19-.39,8.74-4.85,4.26-5.32,6.95,2.64,5.6,2.64,8.35-3.1,5.73-2.64,8.35,4.41,4.44,5.32,7-1,6.42.39,8.75,5.66,2.63,7.39,4.7,1.28,6.35,3.35,8.08,6.2.55,8.54,1.91,3.36,5.52,5.92,6.45,6-1.61,8.68-1.14,5,4,7.77,4,5.15-3.57,7.76-4,6.17,2.06,8.68,1.14,3.59-5.11,5.92-6.45,6.48-.17,8.54-1.91,1.62-6,3.35-8.08,6-2.36,7.39-4.7-.54-6.19.39-8.75,4.85-4.26,5.32-7S166.87,240.32,166.87,237.57Z"/><circle class="cls-4" cx="122.16" cy="237.57" r="37.66"/><path class="cls-1" d="M134.66,240.26h9.72l4.32-16.13H138L134,239a1.7,1.7,0,0,1-1.63,1.29H124a1.38,1.38,0,0,1-1.41-1.09L120,229.51l-10,10a.65.65,0,0,1-1.07-.28h0l-2.6-9.68H95.61l2.88,10.75h9.64a1.36,1.36,0,0,1,1.4,1.09h0l2.59,9.66,10-10a.59.59,0,0,1,1,.21h0l2.63,9.81h10.75l-2.59-9.66h0A.78.78,0,0,1,134.66,240.26Z"/></g></g></svg>