<?xml version="1.0" encoding="utf-8"?>
<!-- Generator: Adobe Illustrator 20.1.0, SVG Export Plug-In . SVG Version: 6.00 Build 0)  -->
<svg version="1.1" id="Layer_1" xmlns="http://www.w3.org/2000/svg" xmlns:xlink="http://www.w3.org/1999/xlink" x="0px" y="0px"
	 viewBox="0 0 270 270" style="enable-background:new 0 0 270 270;" xml:space="preserve">
<style type="text/css">
	.st0{fill:none;stroke:#0F4268;stroke-width:2;stroke-miterlimit:10;}
	.st1{fill:#72C7AE;}
	.st2{fill:#0F4268;}
	.st3{font-family:'Saira-Light';}
	.st4{font-size:51.3629px;}
</style>
<circle class="st0" cx="135" cy="135" r="128"/>
<circle class="st0" cx="137.1" cy="105.7" r="40.2"/>
<path class="st1" d="M137.1,138c-17.8,0-32.2-14.4-32.2-32.2s14.4-32.2,32.2-32.2s32.2,14.4,32.2,32.2S154.9,138,137.1,138z"/>
<circle class="st0" cx="98" cy="190.9" r="15.7"/>
<circle class="st0" cx="119.9" cy="225.6" r="12.1"/>
<text transform="matrix(1 0 0 1 125.1467 125.9497)" class="st2 st3 st4">?</text>
<path class="st0" d="M206,105.7c0-9.7-4.9-18.3-12.4-23.4c1.7-8.9-0.9-18.4-7.8-25.3c-6.9-6.9-16.4-9.5-25.3-7.8
	c-5.1-7.5-13.7-12.4-23.4-12.4s-18.3,4.9-23.4,12.4c-8.9-1.7-18.4,0.9-25.3,7.8c-6.9,6.9-9.5,16.4-7.8,25.3
	c-7.5,5.1-12.4,13.7-12.4,23.4c0,9.7,4.9,18.3,12.4,23.4c-1.7,8.9,0.9,18.4,7.8,25.3s16.4,9.5,25.3,7.8c5.1,7.5,13.7,12.4,23.4,12.4
	s18.3-4.9,23.4-12.4c8.9,1.7,18.4-0.9,25.3-7.8c6.9-6.9,9.5-16.4,7.8-25.3C201.1,124.1,206,115.5,206,105.7z"/>
</svg>
