<?xml version="1.0" encoding="utf-8"?>
<!-- Generator: Adobe Illustrator 20.1.0, SVG Export Plug-In . SVG Version: 6.00 Build 0)  -->
<svg version="1.1" id="Layer_1" xmlns="http://www.w3.org/2000/svg" xmlns:xlink="http://www.w3.org/1999/xlink" x="0px" y="0px"
	 viewBox="0 0 404.3 404.3" style="enable-background:new 0 0 404.3 404.3;" xml:space="preserve">
<style type="text/css">
	.st0{fill:none;stroke:#0F4268;stroke-width:2;stroke-miterlimit:10;}
	.st1{fill:none;stroke:#0E4168;stroke-width:2;stroke-miterlimit:10;}
	.st2{fill:#8AD0BE;}
</style>
<circle class="st0" cx="202.1" cy="202.1" r="128"/>
<path class="st1" d="M387.7,1H16C7.7,1,1,7.7,1,16v371.7c0,8.6,7,15.5,15.5,15.5h371.2c8.6,0,15.5-7,15.5-15.5V16.5
	C403.3,8,396.3,1,387.7,1z"/>
<circle class="st2" cx="202.1" cy="202.1" r="104.2"/>
<line class="st0" x1="292.6" y1="111.6" x2="111.6" y2="292.6"/>
<g>
	<path class="st0" d="M184.1,267c-11.3-0.8-21.9-1.8-31.8-3.1v-33.5c13.5,1.1,24.6,1.7,33.3,1.7c8.5,0,14.2-0.1,17.1-0.4
		c2.9-0.2,4.7-0.7,5.4-1.4c0.7-0.7,1.1-2.1,1.1-4.1c0-1.3-0.2-2.1-0.5-2.6c-0.3-0.5-1.1-0.9-2.2-1.2c-1.2-0.3-3.3-0.7-6.3-1.2
		l-16-2.1c-10.5-1.4-18.4-3.9-23.5-7.5c-5.1-3.6-8.4-8.1-9.9-13.6c-1.5-5.4-2.2-12.7-2.2-21.8c0-13.1,3.1-22.4,9.2-28
		c6.1-5.6,14.9-8.9,26.4-10v-19.1h36.8V138c11.5,0.5,20.9,1.5,28.3,3.1v33.5c-16.2-1.1-26.9-1.7-32.1-1.7c-7.5,0-12.7,0.1-15.5,0.2
		c-2.8,0.2-4.5,0.6-5.3,1.2c-0.8,0.6-1.2,1.7-1.2,3.3c0,1.4,0.2,2.4,0.5,2.9c0.3,0.6,1.1,1,2.2,1.3c1.2,0.3,3.3,0.7,6.5,1.2
		l18.4,2.1c8.2,1.1,14.5,2.7,19.1,4.8c4.6,2.1,8,5.9,10.4,11.4c2.4,5.5,3.5,13.4,3.5,23.8c0,14.9-3,25.4-9,31.4
		c-6,6-14.6,9.4-26,10.4v18.2h-36.8V267z"/>
</g>
</svg>
