<?xml version="1.0" encoding="utf-8"?>
<!-- Generator: Adobe Illustrator 20.1.0, SVG Export Plug-In . SVG Version: 6.00 Build 0)  -->
<svg version="1.1" id="Layer_1" xmlns="http://www.w3.org/2000/svg" xmlns:xlink="http://www.w3.org/1999/xlink" x="0px" y="0px"
	 viewBox="0 0 340 340" style="enable-background:new 0 0 340 340;" xml:space="preserve">
<style type="text/css">
	.st0{fill:none;stroke:#0E4168;stroke-width:2;stroke-miterlimit:10;}
	.st1{fill:#FFFFFF;stroke:#0E4168;stroke-width:2;stroke-miterlimit:10;}
	.st2{fill:#FFFFFF;}
	.st3{fill:#72C7AE;}
</style>
<g>
	<rect x="60.4" y="77.9" class="st0" width="219.2" height="176.1"/>
	<g>
		<line class="st1" x1="98.6" y1="140.4" x2="241.4" y2="140.4"/>
		<line class="st1" x1="131.5" y1="121.1" x2="208.5" y2="121.1"/>
		<line class="st1" x1="98.6" y1="159.7" x2="241.4" y2="159.7"/>
	</g>
	<circle class="st0" cx="170" cy="170" r="166"/>
	<g>
		<path class="st2" d="M169.9,240.6c0-2.7,3.1-5.7,2.6-8.3c-0.5-2.7-4.4-4.4-5.3-6.9c-0.9-2.6,1-6.4-0.4-8.7
			c-1.4-2.3-5.7-2.6-7.4-4.7c-1.7-2.1-1.3-6.3-3.4-8.1c-2.1-1.7-6.2-0.5-8.5-1.9c-2.3-1.3-3.4-5.5-5.9-6.5c-2.5-0.9-6,1.6-8.7,1.1
			c-2.6-0.5-5-4-7.8-4c-2.7,0-5.2,3.6-7.8,4c-2.7,0.5-6.2-2.1-8.7-1.1c-2.6,0.9-3.6,5.1-5.9,6.5c-2.3,1.4-6.5,0.2-8.5,1.9
			c-2.1,1.7-1.6,6-3.4,8.1c-1.7,2.1-6,2.4-7.4,4.7c-1.3,2.3,0.5,6.2-0.4,8.7c-0.9,2.5-4.9,4.3-5.3,6.9c-0.5,2.6,2.6,5.6,2.6,8.3
			c0,2.7-3.1,5.7-2.6,8.3c0.5,2.7,4.4,4.4,5.3,6.9c0.9,2.6-1,6.4,0.4,8.7c1.4,2.3,5.7,2.6,7.4,4.7c1.7,2.1,1.3,6.3,3.4,8.1
			c2.1,1.7,6.2,0.5,8.5,1.9c2.3,1.3,3.4,5.5,5.9,6.5c2.5,0.9,6-1.6,8.7-1.1c2.6,0.5,5,4,7.8,4c2.7,0,5.2-3.6,7.8-4
			c2.7-0.5,6.2,2.1,8.7,1.1c2.6-0.9,3.6-5.1,5.9-6.5c2.3-1.4,6.5-0.2,8.5-1.9c2.1-1.7,1.6-6,3.4-8.1c1.7-2.1,6-2.4,7.4-4.7
			c1.3-2.3-0.5-6.2,0.4-8.7c0.9-2.5,4.9-4.3,5.3-6.9C173,246.3,169.9,243.4,169.9,240.6z"/>
		<path class="st0" d="M169.9,240.6c0-2.7,3.1-5.7,2.6-8.3c-0.5-2.7-4.4-4.4-5.3-6.9c-0.9-2.6,1-6.4-0.4-8.7
			c-1.4-2.3-5.7-2.6-7.4-4.7c-1.7-2.1-1.3-6.3-3.4-8.1c-2.1-1.7-6.2-0.5-8.5-1.9c-2.3-1.3-3.4-5.5-5.9-6.5c-2.5-0.9-6,1.6-8.7,1.1
			c-2.6-0.5-5-4-7.8-4c-2.7,0-5.2,3.6-7.8,4c-2.7,0.5-6.2-2.1-8.7-1.1c-2.6,0.9-3.6,5.1-5.9,6.5c-2.3,1.4-6.5,0.2-8.5,1.9
			c-2.1,1.7-1.6,6-3.4,8.1c-1.7,2.1-6,2.4-7.4,4.7c-1.3,2.3,0.5,6.2-0.4,8.7c-0.9,2.5-4.9,4.3-5.3,6.9c-0.5,2.6,2.6,5.6,2.6,8.3
			c0,2.7-3.1,5.7-2.6,8.3c0.5,2.7,4.4,4.4,5.3,6.9c0.9,2.6-1,6.4,0.4,8.7c1.4,2.3,5.7,2.6,7.4,4.7c1.7,2.1,1.3,6.3,3.4,8.1
			c2.1,1.7,6.2,0.5,8.5,1.9c2.3,1.3,3.4,5.5,5.9,6.5c2.5,0.9,6-1.6,8.7-1.1c2.6,0.5,5,4,7.8,4c2.7,0,5.2-3.6,7.8-4
			c2.7-0.5,6.2,2.1,8.7,1.1c2.6-0.9,3.6-5.1,5.9-6.5c2.3-1.4,6.5-0.2,8.5-1.9c2.1-1.7,1.6-6,3.4-8.1c1.7-2.1,6-2.4,7.4-4.7
			c1.3-2.3-0.5-6.2,0.4-8.7c0.9-2.5,4.9-4.3,5.3-6.9C173,246.3,169.9,243.4,169.9,240.6z"/>
	</g>
	<circle class="st3" cx="125.2" cy="240.6" r="37.7"/>
	<path class="st0" d="M137.7,243.3h9.7l4.3-16.1H141l-4,14.8c-0.2,0.8-0.9,1.3-1.6,1.3H127c-0.7,0-1.2-0.4-1.4-1.1l-2.6-9.7l-10,10
		c-0.3,0.3-0.9,0.2-1.1-0.3l0,0l-2.6-9.7H98.6l2.9,10.8h9.6c0.7,0,1.2,0.4,1.4,1.1l0,0l2.6,9.7l10-10c0.3-0.3,0.9-0.2,1,0.2l0,0
		l2.6,9.8h10.8l-2.6-9.7l0,0C136.8,243.8,137.1,243.3,137.7,243.3z"/>
</g>
</svg>
