<?xml version="1.0" encoding="utf-8"?>
<!-- Generator: Adobe Illustrator 20.1.0, SVG Export Plug-In . SVG Version: 6.00 Build 0)  -->
<svg version="1.1" id="Layer_1" xmlns="http://www.w3.org/2000/svg" xmlns:xlink="http://www.w3.org/1999/xlink" x="0px" y="0px"
	 viewBox="0 0 258.1 258.1" style="enable-background:new 0 0 258.1 258.1;" xml:space="preserve">
<style type="text/css">
	.st0{fill:none;stroke:#FFFFFF;stroke-width:2.0513;stroke-miterlimit:10;}
	.st1{fill:#3FF2C1;}
	.st2{fill:#0E4168;}
	.st3{font-family:'Saira-Light';}
	.st4{font-size:51.3629px;}
</style>
<circle class="st0" cx="129" cy="129" r="128"/>
<circle class="st0" cx="131.2" cy="99.8" r="40.2"/>
<path class="st1" d="M131.2,132c-17.8,0-32.2-14.4-32.2-32.2s14.4-32.2,32.2-32.2s32.2,14.4,32.2,32.2S148.9,132,131.2,132z"/>
<circle class="st0" cx="92" cy="185" r="15.7"/>
<circle class="st0" cx="113.9" cy="219.7" r="12.1"/>
<text transform="matrix(1 0 0 1 119.1848 119.9876)" class="st2 st3 st4">?</text>
<path class="st0" d="M200,99.8c0-9.7-4.9-18.3-12.4-23.4c1.7-8.9-0.9-18.4-7.8-25.3c-6.9-6.9-16.4-9.5-25.3-7.8
	c-5.1-7.5-13.7-12.4-23.4-12.4s-18.3,4.9-23.4,12.4c-8.9-1.7-18.4,0.9-25.3,7.8C75.6,58,73,67.5,74.7,76.4
	c-7.5,5.1-12.4,13.7-12.4,23.4c0,9.7,4.9,18.3,12.4,23.4c-1.7,8.9,0.9,18.4,7.8,25.3s16.4,9.5,25.3,7.8c5.1,7.5,13.7,12.4,23.4,12.4
	s18.3-4.9,23.4-12.4c8.9,1.7,18.4-0.9,25.3-7.8c6.9-6.9,9.5-16.4,7.8-25.3C195.1,118.1,200,109.5,200,99.8z"/>
</svg>
