<?xml version="1.0" encoding="utf-8"?>
<!-- Generator: Adobe Illustrator 20.1.0, SVG Export Plug-In . SVG Version: 6.00 Build 0)  -->
<svg version="1.1" id="Layer_1" xmlns="http://www.w3.org/2000/svg" xmlns:xlink="http://www.w3.org/1999/xlink" x="0px" y="0px"
	 viewBox="0 0 270 270" style="enable-background:new 0 0 270 270;" xml:space="preserve">
<style type="text/css">
	.st0{fill:none;stroke:#0E4168;stroke-width:1.5468;stroke-miterlimit:10;}
	.st1{fill:#72C7AE;}
</style>
<circle class="st0" cx="135" cy="135" r="128"/>
<rect x="50.2" y="77.2" class="st0" width="169.6" height="115.5"/>
<path class="st0" d="M189.5,181.3H80.5c-9.5,0-17.2-7.7-17.2-17.2v-58.2c0-9.5,7.7-17.2,17.2-17.2h108.9c9.5,0,17.2,7.7,17.2,17.2
	v58.2C206.7,173.6,199,181.3,189.5,181.3z"/>
<path class="st0" d="M145.9,77.2h-21.8c0-6,4.9-10.9,10.9-10.9S145.9,71.2,145.9,77.2z"/>
<g>
	<path class="st0" d="M73.3,192.8c0,0-9.2,17.9-6.7,19.7c2.5,1.8,22.6-19.7,22.6-19.7"/>
	<path class="st0" d="M193.4,192.8c0,0,9.2,17.9,6.7,19.7c-2.5,1.8-22.6-19.7-22.6-19.7"/>
</g>
<line class="st0" x1="127.7" y1="68.9" x2="107.5" y2="48.6"/>
<line class="st0" x1="143.5" y1="68.9" x2="163.8" y2="48.6"/>
<circle class="st1" cx="135" cy="135" r="28.2"/>
<circle class="st0" cx="135" cy="135" r="33.5"/>
<g>
	<line class="st0" x1="121.5" y1="142.4" x2="148.5" y2="142.4"/>
	<polyline class="st0" points="143.2,146.1 148.5,142.4 143.2,138.7 	"/>
	
		<rect x="141.2" y="138" transform="matrix(1.946627e-11 -1 1 1.946627e-11 4.1413 281.7651)" class="st1" width="3.6" height="1.7"/>
	
		<rect x="141.2" y="145.1" transform="matrix(1.946627e-11 -1 1 1.946627e-11 -3.0206 288.927)" class="st1" width="3.6" height="1.7"/>
</g>
<g>
	<line class="st0" x1="148.5" y1="127.6" x2="121.5" y2="127.6"/>
	<polyline class="st0" points="126.8,123.9 121.5,127.6 126.8,131.3 	"/>
	
		<rect x="125.3" y="130.3" transform="matrix(-2.510188e-11 1 -1 -2.510188e-11 258.2344 4.1417)" class="st1" width="3.6" height="1.7"/>
	
		<rect x="125.3" y="123.2" transform="matrix(-2.510188e-11 1 -1 -2.510188e-11 251.0725 -3.0201)" class="st1" width="3.6" height="1.7"/>
</g>
</svg>
