<?xml version="1.0" encoding="utf-8"?>
<!-- Generator: Adobe Illustrator 20.1.0, SVG Export Plug-In . SVG Version: 6.00 Build 0)  -->
<svg version="1.1" xmlns="http://www.w3.org/2000/svg" xmlns:xlink="http://www.w3.org/1999/xlink" x="0px" y="0px"
	 viewBox="0 0 90 60" enable-background="new 0 0 90 60" xml:space="preserve">
<g id="bottom">
	<g>
		<g>
			<path fill="#414042" d="M69.222,44.01H20.78c-7.184,0-15.537-5.767-15.537-13.202c0-8.345,9.219-14.817,17.151-14.817h45.213
				c7.932,0,17.151,6.473,17.151,14.817C84.757,38.243,76.406,44.01,69.222,44.01z M22.394,20.657
				c-5.619,0-12.484,4.684-12.484,10.151c0,4.517,6.079,8.535,10.871,8.535h48.442c4.792,0,10.869-4.019,10.869-8.535
				c0-5.467-6.865-10.151-12.484-10.151H22.394z"/>
			<path fill="#414042" d="M24.993,29.794c-0.057,0-0.116-0.002-0.175-0.007c-1.281-0.095-2.244-1.201-2.155-2.482
				c0.271-3.914,3.019-11.315,11.472-11.315c1.29,0,2.333,1.045,2.333,2.333s-1.044,2.333-2.333,2.333
				c-6.088,0-6.76,6.268-6.817,6.983C27.222,28.861,26.199,29.794,24.993,29.794z"/>
			<path fill="#414042" d="M39.453,29.794c-0.057,0-0.116-0.002-0.175-0.007c-1.281-0.095-2.244-1.201-2.155-2.482
				c0.271-3.914,3.019-11.315,11.472-11.315c1.29,0,2.333,1.045,2.333,2.333s-1.044,2.333-2.333,2.333
				c-6.088,0-6.76,6.268-6.817,6.983C41.681,28.861,40.658,29.794,39.453,29.794z"/>
			<path fill="#414042" d="M53.915,29.794c-0.057,0-0.116-0.002-0.175-0.007c-1.281-0.095-2.244-1.201-2.155-2.482
				c0.271-3.914,3.019-11.315,11.472-11.315c1.29,0,2.333,1.045,2.333,2.333s-1.044,2.333-2.333,2.333
				c-6.088,0-6.76,6.268-6.817,6.983C56.143,28.861,55.12,29.794,53.915,29.794z"/>
		</g>
	</g>
</g>
<g id="pie_layer">
</g>
<g id="Pie_Layer_2" display="none">
</g>
<g id="meals_saved" display="none">
</g>
<g id="consumer_ed_hover" display="none">
</g>
<g id="pop_up" display="none">
</g>
<g id="Layer_2">
</g>
<g id="Layer_8">
</g>
</svg>
