<?xml version="1.0" encoding="utf-8"?>
<!-- Generator: Adobe Illustrator 19.1.0, SVG Export Plug-In . SVG Version: 6.00 Build 0)  -->
<svg version="1.1" id="Layer_1" xmlns="http://www.w3.org/2000/svg" xmlns:xlink="http://www.w3.org/1999/xlink" x="0px" y="0px"
	 viewBox="-368 279 55 55" enable-background="new -368 279 55 55" xml:space="preserve">
<g id="bottom">
	<g>
		<g>
			<g>
				<g>
					<circle cx="-321.31" cy="323.028" r="6.397"/>
					<circle cx="-328.987" cy="323.028" r="6.396"/>
					<circle cx="-336.663" cy="323.028" r="6.397"/>
					<circle cx="-344.337" cy="323.028" r="6.397"/>
					<circle cx="-352.014" cy="323.028" r="6.396"/>
					<circle cx="-359.69" cy="323.028" r="6.397"/>
				</g>
				<g>
					<circle cx="-327.11" cy="315.589" r="7.438"/>
					<circle cx="-336.038" cy="315.589" r="7.438"/>
					<circle cx="-344.964" cy="315.589" r="7.439"/>
					<circle cx="-353.889" cy="315.589" r="7.439"/>
				</g>
				<g>
					<circle cx="-334.691" cy="308.979" r="9.683"/>
					<path d="M-331.097,301.814c0,5.349-4.333,9.684-9.682,9.684c-5.351,0-9.684-4.335-9.684-9.684c0-5.347,4.333-9.684,9.684-9.684
						C-335.43,292.13-331.097,296.467-331.097,301.814z"/>
					<circle cx="-346.311" cy="308.979" r="9.684"/>
				</g>
			</g>
		</g>
	</g>
</g>
<g id="Farming" display="none">
</g>
<g id="Manufacturing" display="none">
</g>
<g id="Waste_diverted">
</g>
<g id="jobs">
</g>
<g id="consumer_ed_hover">
</g>
<g id="pop_up" display="none">
</g>
</svg>
