<?xml version="1.0" encoding="utf-8"?>
<!-- Generator: Adobe Illustrator 20.1.0, SVG Export Plug-In . SVG Version: 6.00 Build 0)  -->
<svg version="1.1" xmlns="http://www.w3.org/2000/svg" xmlns:xlink="http://www.w3.org/1999/xlink" x="0px" y="0px"
	 viewBox="0 0 60 60" enable-background="new 0 0 60 60" xml:space="preserve">
<g id="bottom">
	<g>
		<g>
			<g>
				<path fill="#414042" d="M41.046,56.952h-0.009L18.945,56.86c-1.285-0.005-2.324-1.049-2.324-2.333V25.221
					c0-0.471,0.144-0.931,0.408-1.319l6.159-8.987l-0.018-9.534c0-1.289,1.044-2.333,2.333-2.333h8.996
					c1.29,0,2.333,1.045,2.333,2.333v9.59l6.141,8.931c0.267,0.388,0.408,0.848,0.408,1.319v29.398c0,0.62-0.246,1.216-0.686,1.653
					C42.256,56.708,41.664,56.952,41.046,56.952z M21.287,52.203l17.426,0.073V25.944l-5.749-8.391
					c-0.522-0.763-0.8-1.656-0.8-2.582V7.714h-4.329v7.257c0,0.929-0.276,1.822-0.8,2.583l-5.749,8.39V52.203z"/>
			</g>
		</g>
	</g>
</g>
<g id="pie_layer">
</g>
<g id="Pie_Layer_2" display="none">
</g>
<g id="meals_saved" display="none">
</g>
<g id="consumer_ed_hover" display="none">
</g>
<g id="pop_up" display="none">
</g>
<g id="Layer_2">
</g>
<g id="Layer_8">
</g>
</svg>
