<?xml version="1.0" encoding="utf-8"?>
<!-- Generator: Adobe Illustrator 19.1.0, SVG Export Plug-In . SVG Version: 6.00 Build 0)  -->
<svg version="1.1" id="Layer_1" xmlns="http://www.w3.org/2000/svg" xmlns:xlink="http://www.w3.org/1999/xlink" x="0px" y="0px"
	 viewBox="0 0 92.846 92.846" enable-background="new 0 0 92.846 92.846" xml:space="preserve">
<g>
	<g>
		<path d="M44.073,67.421c-6.409-0.549-11.11-2.99-14.468-6.348l4.762-6.776c2.259,2.38,5.616,4.517,9.706,5.249v-9.461
			c-6.288-1.527-13.124-3.907-13.124-12.209c0-6.166,4.883-11.415,13.124-12.27v-5.676h5.738v5.799
			c4.945,0.549,9.157,2.38,12.453,5.432l-4.822,6.471c-2.197-2.015-4.883-3.297-7.63-3.969v8.425
			c6.349,1.587,13.43,4.028,13.43,12.392c0,6.776-4.456,12.025-13.43,12.94v5.494h-5.738V67.421z M44.073,40.685v-7.387
			c-2.686,0.366-4.212,1.832-4.212,3.907C39.861,38.975,41.57,39.891,44.073,40.685z M49.811,51.49v8.18
			c3.114-0.611,4.578-2.381,4.578-4.335C54.389,53.321,52.496,52.345,49.811,51.49z"/>
	</g>
	<path d="M46.423,90.525c-24.318,0-44.102-19.784-44.102-44.102S22.105,2.321,46.423,2.321s44.102,19.784,44.102,44.102
		S70.741,90.525,46.423,90.525z M46.423,9.921c-20.127,0-36.502,16.375-36.502,36.502s16.375,36.502,36.502,36.502
		S82.925,66.55,82.925,46.423S66.55,9.921,46.423,9.921z"/>
</g>
</svg>
