<?xml version="1.0" encoding="utf-8"?>
<!-- Generator: Adobe Illustrator 20.1.0, SVG Export Plug-In . SVG Version: 6.00 Build 0)  -->
<svg version="1.1" xmlns="http://www.w3.org/2000/svg" xmlns:xlink="http://www.w3.org/1999/xlink" x="0px" y="0px"
	 viewBox="0 0 60 60" enable-background="new 0 0 60 60" xml:space="preserve">
<g id="bottom">
	<g>
		<g>
			<path fill="#414042" d="M29.999,51.702c-9.066,0-16.442-7.376-16.442-16.442c0-8.003,6.382-26.962,16.442-26.962
				c10.062,0,16.444,18.959,16.444,26.962C46.443,44.326,39.065,51.702,29.999,51.702z M29.999,12.964
				c-5.537,0-11.775,14.544-11.775,22.295c0,6.493,5.282,11.776,11.775,11.776s11.778-5.283,11.778-11.776
				C41.777,27.509,35.538,12.964,29.999,12.964z"/>
			<path fill="#414042" d="M29.999,44.703c-5.206,0-9.442-4.236-9.442-9.443c0-1.289,1.044-2.333,2.333-2.333
				c1.29,0,2.333,1.045,2.333,2.333c0,2.633,2.142,4.776,4.776,4.776c1.29,0,2.333,1.045,2.333,2.333
				C32.332,43.658,31.289,44.703,29.999,44.703z"/>
		</g>
	</g>
</g>
<g id="pie_layer">
</g>
<g id="Pie_Layer_2" display="none">
</g>
<g id="meals_saved" display="none">
</g>
<g id="consumer_ed_hover" display="none">
</g>
<g id="pop_up" display="none">
</g>
<g id="Layer_2">
</g>
<g id="Layer_8">
</g>
</svg>
