<?xml version="1.0" encoding="utf-8"?>
<!-- Generator: Adobe Illustrator 19.1.0, SVG Export Plug-In . SVG Version: 6.00 Build 0)  -->
<svg version="1.1" id="Layer_1" xmlns="http://www.w3.org/2000/svg" xmlns:xlink="http://www.w3.org/1999/xlink" x="0px" y="0px"
	 viewBox="0 0 92.846 92.846" enable-background="new 0 0 92.846 92.846" xml:space="preserve">
<g>
	<g>
		<g>
			<g>
				<rect x="40.225" y="61.253" width="12.397" height="8.475"/>
				<polygon points="46.424,38.808 24.833,62.95 68.012,62.95 				"/>
				<polygon points="46.424,30.014 28.893,49.619 63.955,49.619 				"/>
				<polygon points="46.424,23.118 34.087,36.912 58.76,36.912 				"/>
			</g>
		</g>
	</g>
	<path d="M46.423,90.525c-24.318,0-44.102-19.784-44.102-44.102S22.105,2.321,46.423,2.321s44.102,19.784,44.102,44.102
		S70.741,90.525,46.423,90.525z M46.423,9.921c-20.127,0-36.502,16.375-36.502,36.502s16.375,36.502,36.502,36.502
		S82.925,66.55,82.925,46.423S66.55,9.921,46.423,9.921z"/>
</g>
</svg>
