<?xml version="1.0" encoding="utf-8"?>
<!-- Generator: Adobe Illustrator 20.1.0, SVG Export Plug-In . SVG Version: 6.00 Build 0)  -->
<svg version="1.1" xmlns="http://www.w3.org/2000/svg" xmlns:xlink="http://www.w3.org/1999/xlink" x="0px" y="0px"
	 viewBox="0 0 60 60" enable-background="new 0 0 60 60" xml:space="preserve">
<g id="bottom">
	<g>
		<g>
			<path fill="#414042" d="M49.53,49.205H10.47c-0.834,0-1.604-0.445-2.021-1.167c-0.417-0.722-0.417-1.611,0-2.333l19.529-33.827
				c0.834-1.443,3.208-1.443,4.042,0l19.532,33.827c0.417,0.722,0.417,1.611,0,2.333S50.364,49.205,49.53,49.205z M14.512,44.538
				h30.977L29.999,17.711L14.512,44.538z"/>
			<g>
				<path fill="#414042" d="M29.999,35.686c-1.29,0-2.333-1.045-2.333-2.333v-6.286c0-1.289,1.044-2.333,2.333-2.333
					s2.333,1.045,2.333,2.333v6.286C32.332,34.641,31.289,35.686,29.999,35.686z"/>
				<path fill="#414042" d="M29.999,42.644c-1.29,0-2.333-1.045-2.333-2.333v-0.942c0-1.289,1.044-2.333,2.333-2.333
					s2.333,1.045,2.333,2.333v0.942C32.332,41.599,31.289,42.644,29.999,42.644z"/>
			</g>
		</g>
	</g>
</g>
<g id="pie_layer">
</g>
<g id="Pie_Layer_2" display="none">
</g>
<g id="meals_saved" display="none">
</g>
<g id="consumer_ed_hover" display="none">
</g>
<g id="pop_up" display="none">
</g>
<g id="Layer_2">
</g>
<g id="Layer_8">
</g>
</svg>
