<?xml version="1.0" encoding="utf-8"?>
<!-- Generator: Adobe Illustrator 20.1.0, SVG Export Plug-In . SVG Version: 6.00 Build 0)  -->
<svg version="1.1" xmlns="http://www.w3.org/2000/svg" xmlns:xlink="http://www.w3.org/1999/xlink" x="0px" y="0px"
	 viewBox="0 0 60 60" enable-background="new 0 0 60 60" xml:space="preserve">
<g id="bottom">
	<g>
		<path fill="#414042" d="M21.73,54.088c-1.752,0-3.397-0.682-4.632-1.92l-9.296-9.294c-1.237-1.238-1.919-2.884-1.919-4.633
			c0-1.75,0.681-3.396,1.919-4.635l18.873-18.873c-0.15-0.488-0.228-0.987-0.228-1.491c0-1.387,0.54-2.69,1.52-3.67
			c1.821-1.82,4.924-1.975,6.906-0.386c2.292-1.286,5.204-1.355,7.562-0.185l1.381-1.38c2.274-2.28,6.255-2.281,8.533,0.001
			c1.139,1.137,1.768,2.653,1.768,4.267c0,1.613-0.629,3.128-1.768,4.267l-1.381,1.38c1.18,2.384,1.11,5.235-0.182,7.561
			c0.734,0.916,1.132,2.047,1.132,3.239c0,1.387-0.54,2.69-1.52,3.669c-1.335,1.336-3.327,1.862-5.161,1.291L26.365,52.168
			C25.127,53.406,23.482,54.088,21.73,54.088z M29.418,18.365L10.989,36.795c-0.387,0.387-0.599,0.901-0.599,1.447
			c0,0.546,0.212,1.06,0.599,1.447l9.294,9.294c0.756,0.758,2.137,0.755,2.894,0l0,0l18.429-18.429L29.418,18.365z M44.383,30.257
			c0.057,0.219,0.05,0.452-0.021,0.668c0.175-0.104,0.376-0.159,0.576-0.162c-0.121-0.088-0.235-0.186-0.344-0.294L44.383,30.257z
			 M48.036,29.643h0.023H48.036z M31.635,12.561c-0.185,0-0.351,0.069-0.481,0.199c-0.132,0.132-0.201,0.298-0.201,0.482
			c0,0.185,0.068,0.35,0.198,0.479l15.093,15.096c0.242,0.243,0.72,0.243,0.966,0c0.264-0.267,0.264-0.699,0-0.964L32.118,12.76
			C31.988,12.631,31.819,12.561,31.635,12.561z M47.457,24.8l0.731,0.732c-0.071-0.268-0.046-0.558,0.082-0.815
			c-0.118,0.059-0.248,0.097-0.383,0.113C47.733,24.848,47.594,24.836,47.457,24.8z M38.436,12.705l8.845,8.846
			c0.109-0.999-0.194-2.029-0.889-2.807c-0.793-0.892-0.754-2.251,0.089-3.094l2.68-2.68c0.287-0.289,0.447-0.673,0.447-1.08
			c0-0.408-0.16-0.792-0.447-1.081c-0.535-0.533-1.618-0.536-2.158,0l-2.682,2.681c-0.843,0.844-2.201,0.882-3.092,0.089
			C40.478,12.912,39.439,12.61,38.436,12.705z M48.384,17.045l-0.253,0.254c0.084,0.088,0.164,0.178,0.239,0.271
			C48.337,17.396,48.341,17.216,48.384,17.045z M29.208,15.033c-0.002,0.202-0.059,0.401-0.162,0.577
			c0.214-0.072,0.451-0.079,0.672-0.022l-0.214-0.214C29.397,15.268,29.297,15.153,29.208,15.033z M49.986,13.794h0.023H49.986z
			 M34.442,11.786l0.729,0.73c-0.036-0.139-0.048-0.285-0.032-0.432c0.016-0.133,0.055-0.261,0.112-0.379
			C34.996,11.83,34.704,11.854,34.442,11.786z M42.517,11.617c0.091,0.071,0.178,0.144,0.264,0.22l0.287-0.3
			C42.893,11.609,42.706,11.638,42.517,11.617z"/>
	</g>
</g>
<g id="pie_layer">
</g>
<g id="Pie_Layer_2" display="none">
</g>
<g id="meals_saved" display="none">
</g>
<g id="consumer_ed_hover" display="none">
</g>
<g id="pop_up" display="none">
</g>
<g id="Layer_2">
</g>
<g id="Layer_8">
</g>
</svg>
