<?xml version="1.0" encoding="utf-8"?>
<!-- Generator: Adobe Illustrator 19.1.0, SVG Export Plug-In . SVG Version: 6.00 Build 0)  -->
<svg version="1.1" id="Layer_1" xmlns="http://www.w3.org/2000/svg" xmlns:xlink="http://www.w3.org/1999/xlink" x="0px" y="0px"
	 viewBox="0 0 92.846 92.846" enable-background="new 0 0 92.846 92.846" xml:space="preserve">
<g>
	<g>
		<polygon points="38.687,26.475 50.658,26.475 50.658,30.324 53.561,30.324 53.561,23.404 35.784,23.404 35.784,30.324 
			38.687,30.324 		"/>
		<path d="M56.493,54.1c-3.248,1.891-6.951,2.891-10.709,2.891c-4.046,0-7.99-1.146-11.406-3.315L22.333,46.03
			c-0.182-0.116-0.351-0.246-0.519-0.377v16.189c0,1.857,1.505,3.362,3.362,3.362h42.492c1.857,0,3.362-1.505,3.362-3.362V45.56
			c-0.23,0.181-0.472,0.348-0.729,0.498L56.493,54.1z"/>
		<path d="M69.285,33.462c-0.421-0.285-0.901-0.49-1.416-0.596c-0.258-0.053-0.525-0.08-0.798-0.08H28.287h-2.511
			c-1.094,0-2.084,0.443-2.801,1.16c-0.179,0.179-0.341,0.375-0.484,0.586c-0.427,0.632-0.676,1.394-0.676,2.215v2.511v1.35
			c0,0.169,0.011,0.337,0.032,0.503c0.042,0.331,0.126,0.653,0.248,0.959c0.304,0.764,0.843,1.428,1.558,1.882l6.022,3.823
			l6.023,3.824c0.378,0.24,0.762,0.464,1.153,0.675c0.129,0.07,0.262,0.129,0.393,0.195c0.263,0.134,0.526,0.27,0.794,0.391
			c0.16,0.072,0.323,0.133,0.484,0.2c0.243,0.102,0.486,0.207,0.732,0.298c0.174,0.064,0.35,0.118,0.526,0.177
			c0.238,0.08,0.476,0.163,0.716,0.234c0.183,0.054,0.368,0.097,0.552,0.144c0.236,0.061,0.471,0.125,0.708,0.177
			c0.19,0.042,0.382,0.073,0.573,0.109c0.234,0.044,0.468,0.089,0.703,0.124c0.195,0.029,0.392,0.048,0.588,0.071
			c0.232,0.027,0.465,0.055,0.698,0.073c0.199,0.016,0.399,0.022,0.599,0.032c0.231,0.011,0.462,0.022,0.693,0.024
			c0.059,0.001,0.117,0.006,0.176,0.006c0.162,0,0.324-0.012,0.486-0.016c0.192-0.005,0.385-0.008,0.577-0.019
			c0.226-0.013,0.45-0.035,0.675-0.056c0.19-0.018,0.38-0.032,0.569-0.056c0.228-0.028,0.455-0.066,0.682-0.103
			c0.185-0.03,0.371-0.056,0.555-0.091c0.23-0.044,0.458-0.099,0.687-0.152c0.18-0.041,0.36-0.078,0.539-0.125
			c0.234-0.061,0.465-0.134,0.696-0.205c0.171-0.052,0.343-0.099,0.513-0.155c0.243-0.081,0.482-0.175,0.722-0.267
			c0.155-0.059,0.313-0.112,0.467-0.176c0.263-0.108,0.521-0.231,0.78-0.351c0.128-0.06,0.259-0.113,0.386-0.175
			c0.383-0.19,0.763-0.392,1.136-0.61l6.905-4.021l6.904-4.021c0.152-0.089,0.297-0.187,0.434-0.293
			c0.548-0.425,0.971-0.984,1.232-1.614c0.196-0.473,0.301-0.987,0.301-1.515v-3.762C71.031,35.379,70.338,34.174,69.285,33.462z
			 M46.423,51.095c-1.159,0-2.1-0.94-2.1-2.1c0-1.16,0.94-2.1,2.1-2.1c1.16,0,2.1,0.94,2.1,2.1
			C48.522,50.154,47.582,51.095,46.423,51.095z"/>
	</g>
	<path d="M46.423,90.525c-24.318,0-44.102-19.784-44.102-44.102S22.105,2.321,46.423,2.321s44.102,19.784,44.102,44.102
		S70.741,90.525,46.423,90.525z M46.423,9.921c-20.127,0-36.502,16.375-36.502,36.502s16.375,36.502,36.502,36.502
		S82.925,66.55,82.925,46.423S66.55,9.921,46.423,9.921z"/>
</g>
</svg>
