<?xml version="1.0" encoding="utf-8"?>
<!-- Generator: Adobe Illustrator 19.1.0, SVG Export Plug-In . SVG Version: 6.00 Build 0)  -->
<svg version="1.1" id="Layer_1" xmlns="http://www.w3.org/2000/svg" xmlns:xlink="http://www.w3.org/1999/xlink" x="0px" y="0px"
	 viewBox="-378 289.419 34.581 34.581" enable-background="new -378 289.419 34.581 34.581" xml:space="preserve">
<g id="bottom">
	<g>
		<path d="M-359.673,305.439v-0.036c-0.006,0.013-0.016,0.025-0.024,0.036H-359.673z"/>
		<path d="M-360.709,289.419c-9.55,0-17.291,7.742-17.291,17.291c0,9.551,7.741,17.291,17.291,17.291
			c9.549,0,17.291-7.74,17.291-17.291C-343.419,297.161-351.161,289.419-360.709,289.419z M-365.429,314.973h-3.707v-11.149h3.707
			V314.973z M-367.283,302.3h-0.024c-1.243,0-2.047-0.857-2.047-1.927c0-1.093,0.83-1.927,2.096-1.927
			c1.269,0,2.049,0.834,2.073,1.927C-365.186,301.443-365.99,302.3-367.283,302.3z M-352.064,314.973h-3.706v-5.965
			c0-1.499-0.536-2.522-1.879-2.522c-1.023,0-1.634,0.692-1.902,1.357c-0.098,0.239-0.122,0.568-0.122,0.903v6.226h-3.705
			c0,0,0.047-10.104,0-11.149h3.705v1.579c0.494-0.762,1.374-1.841,3.341-1.841c2.438,0,4.268,1.591,4.268,5.017
			C-352.064,308.578-352.064,314.973-352.064,314.973z"/>
	</g>
</g>
<g id="Farming" display="none">
</g>
<g id="Manufacturing" display="none">
</g>
<g id="Waste_diverted">
</g>
<g id="jobs">
</g>
<g id="consumer_ed_hover">
</g>
<g id="pop_up" display="none">
</g>
</svg>
