<?xml version="1.0" encoding="utf-8"?>
<!-- Generator: Adobe Illustrator 20.1.0, SVG Export Plug-In . SVG Version: 6.00 Build 0)  -->
<svg version="1.1" id="Layer_1" xmlns="http://www.w3.org/2000/svg" xmlns:xlink="http://www.w3.org/1999/xlink" x="0px" y="0px"
	 viewBox="0 0 20 20" enable-background="new 0 0 20 20" xml:space="preserve">
<g>
	<g>
		<path fill="#231F20" d="M18.781,10.96H6.529c-0.53,0-0.96-0.43-0.96-0.96s0.43-0.96,0.96-0.96h12.252c0.53,0,0.96,0.43,0.96,0.96
			S19.311,10.96,18.781,10.96z"/>
		<path fill="#231F20" d="M18.781,4.273H6.529c-0.53,0-0.96-0.43-0.96-0.96s0.43-0.96,0.96-0.96h12.252c0.53,0,0.96,0.43,0.96,0.96
			S19.311,4.273,18.781,4.273z"/>
		<path fill="#231F20" d="M18.781,17.647H6.529c-0.53,0-0.96-0.43-0.96-0.96c0-0.53,0.43-0.96,0.96-0.96h12.252
			c0.53,0,0.96,0.43,0.96,0.96C19.741,17.217,19.311,17.647,18.781,17.647z"/>
	</g>
	<g>
		<path fill="#231F20" d="M1.739,10.96h-0.52c-0.53,0-0.96-0.43-0.96-0.96s0.43-0.96,0.96-0.96h0.52c0.53,0,0.96,0.43,0.96,0.96
			S2.269,10.96,1.739,10.96z"/>
		<path fill="#231F20" d="M1.739,4.273h-0.52c-0.53,0-0.96-0.43-0.96-0.96s0.43-0.96,0.96-0.96h0.52c0.53,0,0.96,0.43,0.96,0.96
			S2.269,4.273,1.739,4.273z"/>
		<path fill="#231F20" d="M1.739,17.647h-0.52c-0.53,0-0.96-0.43-0.96-0.96c0-0.53,0.43-0.96,0.96-0.96h0.52
			c0.53,0,0.96,0.43,0.96,0.96C2.699,17.217,2.269,17.647,1.739,17.647z"/>
	</g>
</g>
</svg>
