<?xml version="1.0" encoding="utf-8"?>
<!-- Generator: Adobe Illustrator 20.1.0, SVG Export Plug-In . SVG Version: 6.00 Build 0)  -->
<svg version="1.1" id="Layer_1" xmlns="http://www.w3.org/2000/svg" xmlns:xlink="http://www.w3.org/1999/xlink" x="0px" y="0px"
	 viewBox="0 0 25 25" enable-background="new 0 0 25 25" xml:space="preserve">
<path fill="#231F20" d="M22.217,5.385c-2.193-2.991-5.723-4.94-9.718-4.94c-3.993,0-7.522,1.95-9.715,4.94
	C2.406,5.9,2.067,6.442,1.774,7.014c-0.843,1.646-1.328,3.507-1.328,5.484c0,6.658,5.396,12.057,12.053,12.057
	c6.66,0,12.056-5.399,12.056-12.057c0-1.977-0.485-3.838-1.328-5.484C22.933,6.442,22.594,5.9,22.217,5.385z M14.891,12.416
	L12.5,14.333l-2.391-1.917L4.688,8.069V7.7H15.8H17h3.312v0.369L14.891,12.416z M20.312,17.3H17H8H4.688V9.35l3.18,2.55l1.058,0.848
	l3.575,2.866l3.575-2.866l1.058-0.848l3.18-2.55V17.3z"/>
</svg>
