<?xml version="1.0" encoding="utf-8"?>
<!-- Generator: Adobe Illustrator 19.1.0, SVG Export Plug-In . SVG Version: 6.00 Build 0)  -->
<svg version="1.1" id="Layer_1" xmlns="http://www.w3.org/2000/svg" xmlns:xlink="http://www.w3.org/1999/xlink" x="0px" y="0px"
	 viewBox="0 0 92.846 92.846" enable-background="new 0 0 92.846 92.846" xml:space="preserve">
<g>
	<path d="M53.104,16.71L52.56,32.237h-2.419L49.596,16.71h-1.417l-0.548,15.527h-2.417L44.667,16.71h-1.418l-0.544,15.527h-2.417
		L39.743,16.71h-1.42L37.62,37.552c0,3.63,2.435,6.709,5.832,7.869c0,0.018-0.007,0.034-0.007,0.051
		c0,0.041,0.013,0.079,0.014,0.117h-0.007l-3.204,25.739c0,2.691,2.766,4.871,6.175,4.871c3.41,0,6.173-2.18,6.173-4.871
		l-3.201-25.739h-0.01c0.002-0.038,0.014-0.076,0.014-0.117c0-0.018-0.006-0.034-0.006-0.051c3.396-1.159,5.83-4.239,5.83-7.869
		L54.522,16.71H53.104z"/>
	<path d="M46.423,2.321c-24.318,0-44.102,19.784-44.102,44.102s19.784,44.102,44.102,44.102s44.102-19.784,44.102-44.102
		S70.741,2.321,46.423,2.321z M46.423,82.925c-20.127,0-36.502-16.375-36.502-36.502S26.296,9.921,46.423,9.921
		s36.502,16.375,36.502,36.502S66.55,82.925,46.423,82.925z"/>
</g>
</svg>
