<?xml version="1.0" encoding="utf-8"?>
<!-- Generator: Adobe Illustrator 20.1.0, SVG Export Plug-In . SVG Version: 6.00 Build 0)  -->
<svg version="1.1" xmlns="http://www.w3.org/2000/svg" xmlns:xlink="http://www.w3.org/1999/xlink" x="0px" y="0px"
	 viewBox="0 0 80 60" enable-background="new 0 0 80 60" xml:space="preserve">
<g id="bottom">
	<g>
		<path fill="#414042" d="M68.611,35.444c0.051-0.499,0.081-1.022,0.081-1.577c0-6.646-2.29-10.227-14.808-11.365
			c-4.047-0.368-6.805-3.227-9.725-6.253c-3.349-3.471-7.145-7.406-13.231-7.406c-5.624,0-11.16,2.96-15.189,8.122
			c-3.733,4.78-5.382,10.422-4.307,14.724c0.08,0.319,0.177,0.631,0.282,0.937c-0.007,1.935,0.259,4.012,0.814,6.232
			c2.146,8.585,14.259,12.298,19.965,12.298h20.019c10.374,0,16.38-1.638,16.38-10.01C68.893,39.009,68.845,37.081,68.611,35.444z
			 M64.142,33.867c0,2.717-0.331,4.654-5.254,5.475l5.129-7.693C64.124,32.3,64.142,33.034,64.142,33.867z M52.491,26.907
			l-8.584,12.875h-7.554l9.872-15.513C48.019,25.529,50.06,26.513,52.491,26.907z M56.55,27.378
			c2.351,0.326,3.978,0.733,5.099,1.258l-7.405,11.107c-0.742,0.024-1.531,0.037-2.388,0.037h-3.575L56.55,27.378z M43.399,21.929
			L32.038,39.782h-0.2c-1.501,0-3.547-0.344-5.678-1.003l13.319-20.811c0.463,0.465,0.93,0.946,1.406,1.44
			C41.687,20.24,42.516,21.099,43.399,21.929z M31.614,13.422c1.961,0.15,3.595,0.941,5.125,2.094
			c-0.02,0.028-0.045,0.052-0.065,0.081L22.699,37.434c-1.693-0.811-3.272-1.828-4.509-3.037L31.614,13.422z M19.325,19.765
			c2.133-2.733,4.754-4.675,7.525-5.652L16.007,31.055c-0.052-0.157-0.122-0.308-0.162-0.47
			C15.124,27.702,16.522,23.353,19.325,19.765z M52.513,47.517H32.494c-4.538,0-13.909-3.057-16.135-8.673
			c4.754,3.775,11.581,5.488,15.48,5.488h20.019c5.278,0,10.234-0.284,13.384-2.549C65.099,45.676,63.417,47.517,52.513,47.517z"/>
	</g>
</g>
<g id="pie_layer">
</g>
<g id="Pie_Layer_2" display="none">
</g>
<g id="meals_saved" display="none">
</g>
<g id="consumer_ed_hover" display="none">
</g>
<g id="pop_up" display="none">
</g>
<g id="Layer_2">
</g>
<g id="Layer_8">
</g>
</svg>
