<?xml version="1.0" encoding="utf-8"?>
<!-- Generator: Adobe Illustrator 20.1.0, SVG Export Plug-In . SVG Version: 6.00 Build 0)  -->
<svg version="1.1" id="Layer_1" xmlns="http://www.w3.org/2000/svg" xmlns:xlink="http://www.w3.org/1999/xlink" x="0px" y="0px"
	 viewBox="0 0 60 60" style="enable-background:new 0 0 60 60;" xml:space="preserve">
<style type="text/css">
	.st0{fill:#414042;}
	.st1{display:none;}
</style>
<path class="st0" d="M39.3,15.5c-1.7,0-3.7,0.4-5.8,1.3c0.9-1.6,2.2-2.7,4-3.1c1.1-0.3,1.9-1.3,1.8-2.4c0-0.7-0.4-1.3-0.9-1.8
	c-0.5-0.4-1.2-0.6-1.9-0.4c-1.5,0.3-2.9,1-4.1,1.9c-0.2-0.6-0.4-1.2-0.7-1.7c-2.5-4.8-9.2-5.8-9.5-5.8l-1.3-0.2
	c-0.3,0-0.5,0.1-0.6,0.3l-0.6,1.2c-0.1,0.3-2.9,6.2-0.6,11C12.5,16.9,6,25.4,6,33.3c0,20.1,23.4,23.4,23.7,23.5c0.1,0,0.2,0,0.3,0
	c0.1,0,0.3,0,0.4,0c0.2,0,23.6-4.3,23.6-24C54,24.5,46.3,15.5,39.3,15.5z M23.3,8.5c1.4,0.5,3.4,1.4,4.2,2.9
	c0.8,1.6,0.4,3.9,0.1,5.2c-1.4-0.5-3.4-1.4-4.2-2.9C22.5,12,22.9,9.8,23.3,8.5z M22.7,37.9c0.1,0.6,0.5,1.1,1,1.5
	c0.5,0.4,1.2,0.5,1.8,0.3c1.2-0.3,2-1.5,1.8-2.7c-1-6,0.3-10.6,3.8-13.9c0,0,0.1-0.1,0.1-0.1c1.2-0.7,5.1-2.9,8-2.9
	c4.1,0,10,6.5,10,12.5c0,14.8-16.9,18.9-19.4,19.4c-2.4-0.4-19.3-3.9-19.3-18.8c0-6.2,6-13.1,10-13.1c1.8,0,3.8,0.7,5.4,1.5
	C22.8,25.9,21.6,31.4,22.7,37.9z"/>
<g id="pie_layer">
</g>
<g id="Pie_Layer_2" class="st1">
</g>
<g id="meals_saved" class="st1">
</g>
<g id="consumer_ed_hover" class="st1">
</g>
<g id="pop_up" class="st1">
</g>
<g id="Layer_2">
</g>
<g id="Layer_8">
</g>
</svg>
