<?xml version="1.0" encoding="utf-8"?>
<!-- Generator: Adobe Illustrator 20.1.0, SVG Export Plug-In . SVG Version: 6.00 Build 0)  -->
<svg version="1.1" id="Layer_1" xmlns="http://www.w3.org/2000/svg" xmlns:xlink="http://www.w3.org/1999/xlink" x="0px" y="0px"
	 viewBox="0 0 80 60" style="enable-background:new 0 0 80 60;" xml:space="preserve">
<style type="text/css">
	.st0{fill:#414042;}
	.st1{display:none;}
</style>
<path class="st0" d="M71.1,47.9c-0.2-1.3-1-2.5-2.1-3.3c-0.1-0.1-0.2-0.1-0.3-0.2v-4.1c0,0,0,0,0,0v0c0,0,0-0.1,0-0.1
	c0-0.1,0-0.2,0-0.3c0,0,0-0.1,0-0.1c0-0.1,0-0.2-0.1-0.2c0,0,0-0.1-0.1-0.1c0-0.1-0.1-0.1-0.1-0.2c0,0,0,0,0,0l-10-16
	c-1.9-3-6.1-4.9-9.6-4.2l-3,0.6v-2.2c0-0.4-0.1-0.7-0.3-1c1.7-0.6,2.8-2.2,2.8-4.1c0-1.9-1.2-3.5-2.8-4.1c0.2-0.3,0.3-0.6,0.3-1V4.6
	c0-1-0.8-1.9-1.9-1.9c-1,0-1.9,0.8-1.9,1.9v2.5c0,0.4,0.1,0.7,0.3,1c-1.7,0.6-2.8,2.2-2.8,4.1c0,1.9,1.2,3.5,2.8,4.1
	c-0.2,0.3-0.3,0.6-0.3,1v2.9l-29,5.4c0,0,0,0,0,0l0,0c0,0,0,0,0,0c-0.1,0-0.1,0-0.2,0c-0.1,0-0.1,0-0.2,0.1c0,0,0,0,0,0
	c-0.1,0-0.1,0.1-0.2,0.1c0,0-0.1,0-0.1,0.1c0,0,0,0,0,0c0,0,0,0,0,0c0,0-0.1,0.1-0.1,0.1c0,0-0.1,0.1-0.1,0.1c0,0,0,0,0,0
	c0,0-0.1,0.1-0.1,0.1c0,0-0.1,0.1-0.1,0.1c0,0,0,0,0,0c0,0,0,0,0,0c0,0,0,0.1-0.1,0.1c0,0.1-0.1,0.1-0.1,0.2c0,0,0,0,0,0
	c0,0,0,0,0,0c0,0,0,0.1,0,0.1c0,0,0,0,0,0c0,0,0,0.1,0,0.1c0,0,0,0,0,0c0,0,0,0,0,0c0,0,0,0,0,0c0,0,0,0.1,0,0.1c0,0.1,0,0.1,0,0.2
	c0,0,0,0,0,0c0,0,0,0,0,0v3.8c-0.3,0.2-0.6,0.4-0.9,0.7c-1.6,1.5-2,3.4-1.2,5.3c0.5,1.2,1.2,1.8,2.2,2v3.4c0,0,0,0,0,0v0.1
	c0,0,0,0.1,0,0.1c0,0.1,0,0.2,0,0.3c0,0,0,0.1,0,0.1c0,0.1,0,0.1,0.1,0.2c0,0,0,0.1,0.1,0.1c0,0,0,0.1,0.1,0.1c0,0,0,0,0,0
	c0,0,0.1,0.1,0.1,0.1c0,0.1,0.1,0.1,0.1,0.2c0,0,0.1,0.1,0.1,0.1c0.1,0.1,0.1,0.1,0.2,0.2c0,0,0.1,0,0.1,0.1c0.1,0,0.1,0.1,0.2,0.1
	c0.1,0,0.1,0,0.2,0.1c0.1,0,0.1,0,0.2,0.1l53.5,12.7c0,0,0,0,0,0c0.1,0,0.3,0,0.4,0c0.2,0,0.4,0,0.6-0.1c0,0,0.1,0,0.1,0
	c0.2-0.1,0.3-0.1,0.5-0.3c0,0,0,0,0.1-0.1c0.1-0.1,0.3-0.2,0.4-0.4c0,0,0,0,0,0c0.1-0.1,0.2-0.3,0.2-0.5c0,0,0,0,0-0.1c0,0,0,0,0,0
	c0,0,0-0.1,0-0.1c0-0.1,0-0.2,0-0.3c0,0,0,0,0,0v-3c0.6-0.2,1.1-0.7,1.6-1.4C70.9,50.2,71.2,49.1,71.1,47.9z M43.8,29.3
	c1,0,1.9-0.8,1.9-1.8v-4.2l3.7-0.7c2-0.4,4.7,0.8,5.8,2.5l7.6,12.2l-40.6-9.7L42,24v3.5C42,28.5,42.8,29.3,43.8,29.3z M26.5,38.1
	l-0.6,0.1c-1.2,0.3-1.7,0.4-1.9,0.4c0,0-0.2-0.1-0.9-0.9c-0.5-0.6-0.9-1-1.2-1.3l5.8,1.4C27.3,37.9,26.9,38,26.5,38.1z M15.1,39.3
	c1.9-0.2,3.1-0.1,4.4,0.1c0.1,0.1,0.3,0.3,0.8,0.9c1.1,1.3,1.8,1.8,2.9,2c1,0.2,1.8,0.1,3.6-0.4l0.5-0.1c0.8-0.2,1.3-0.2,1.6-0.2
	c0.5,0.1,0.9,0.3,2.1,1.6l0.1,0.1c1.2,1.3,2.1,2.1,3.2,2.6l-19.3-4.6V39.3z M40.3,45.8c2.1-0.4,2.9-0.5,3.5-0.5
	c0.8,0.1,1.7,0.6,3.2,2c0.2,0.3,0.7,0.7,1.8,1.6c0.3,0.2,0.5,0.4,0.7,0.5l-13.7-3.3C37,46.3,38.2,46.2,40.3,45.8z M39.8,42.1
	c-2.1,0.4-3,0.5-3.6,0.4c-0.6-0.1-1.1-0.5-2.3-1.7l-0.1-0.1c-0.7-0.7-1.2-1.3-1.8-1.7l11.3,2.7C42.5,41.6,41.5,41.8,39.8,42.1z
	 M15.1,31.1v-1.3l49.8,11.8v1.3L15.1,31.1z M13.1,34.7c0.1-0.1,0.2-0.1,0.2-0.2l4.3,1c-0.9,0-1.8,0-2.9,0.1c-0.6,0-1.7,0.1-2.1,0.1
	C12.5,35.4,12.6,35.1,13.1,34.7z M53.6,50.4c0.6,0,1.3-0.1,2.2-0.2c1-0.1,1.6-0.1,2.2-0.2c1.2-0.1,2.1,0,2.9,0.2
	c0.7,0.1,1.4,0.4,2.4,0.9c0.6,0.3,1.1,0.5,1.5,0.7v1.3L53.6,50.4z M67.4,48.8c-0.2,0-1.4-0.5-2.4-1c-1.3-0.6-2.2-0.9-3.2-1.2
	c-1.1-0.2-2.3-0.3-3.8-0.2c-0.7,0-1.3,0.1-2.4,0.2c-2.3,0.2-3.1,0.2-3.5,0.1c-0.3-0.1-0.3-0.1-2.3-1.9l-0.1-0.1
	c-1-0.9-2-1.7-2.9-2.2l18.6,4.4c0.1,0.1,0.2,0.1,0.3,0.2c0.3,0.1,0.7,0.3,1.2,0.6c0.6,0.4,0.7,0.6,0.7,0.7
	C67.6,48.4,67.5,48.6,67.4,48.8z"/>
<g id="pie_layer">
</g>
<g id="Pie_Layer_2" class="st1">
</g>
<g id="meals_saved" class="st1">
</g>
<g id="consumer_ed_hover" class="st1">
</g>
<g id="pop_up" class="st1">
</g>
<g id="Layer_2">
</g>
<g id="Layer_8">
</g>
</svg>
