<?xml version="1.0" encoding="utf-8"?>
<!-- Generator: Adobe Illustrator 20.1.0, SVG Export Plug-In . SVG Version: 6.00 Build 0)  -->
<svg version="1.1" xmlns="http://www.w3.org/2000/svg" xmlns:xlink="http://www.w3.org/1999/xlink" x="0px" y="0px"
	 viewBox="0 0 60 60" enable-background="new 0 0 60 60" xml:space="preserve">
<g id="bottom">
	<g>
		<path fill="#414042" d="M22.722,55.033c-3.785,0-6.97-0.872-9.52-2.61c-3.671-2.502-4.83-5.994-5.156-7.379
			c-0.18-1.165,0.344-2.085,1.205-2.373c8.519-3.878,14.656-1.403,17.526,0.395c1.205-1.114,2.711-1.934,4.432-2.406
			c0.451-0.884,1.483-2.502,3.381-3.565c0.046-1.099,0.289-2.819,0.998-4.646c-0.513-0.811-1.208-2.133-1.777-3.703
			c-1.932-0.766-3.778-2.162-5.307-4.007c-2.367,0.332-4.464,0.244-6.337-0.242c-1.014-0.233-2.037-0.976-2.928-2.14
			c-0.962-1.188-1.748-2.903-2.377-5.218c-0.561-2.059-0.686-4.061-0.365-5.794c0.287-1.722,1.062-3.032,2.174-3.667l0.005,0.006
			C19.86,6.871,25.028,3.73,31.704,5.5c0.59,0.117,1.132,0.422,1.545,0.861c2.285,0.005,8.421,0.706,12.354,7.599
			c0.205,0.407,0.403,0.834,0.499,1.315c1.761,1.578,6.883,6.89,5.717,14.35c-0.071,0.502-0.294,1.019-0.624,1.463
			c0.959,4.479,0.016,8.404-2.684,11.105c-0.144,0.142-0.319,0.287-0.494,0.428c-0.109,0.087-0.219,0.171-0.305,0.259
			c-0.048,0.048-0.107,0.107-0.175,0.169c-0.267,1.086-1.055,3.125-2.98,5.05c-1.497,1.499-3.445,2.654-5.787,3.435
			c-0.606,0.166-1.16,0.219-1.713,0.167c-0.036,0.037-0.073,0.073-0.109,0.11c-1.098,1.097-3.099,2.452-6.466,2.759
			c-0.526,0.059-1.069-0.005-1.62-0.195C26.666,54.813,24.62,55.033,22.722,55.033z M28.409,52.082c0,0,0,0.002,0,0.003
			C28.409,52.084,28.414,52.083,28.409,52.082z M12.389,45.588c0.463,0.976,1.358,2.373,2.985,3.471
			c0.007,0.003,0.011,0.007,0.016,0.011c2.44,1.704,5.815,2.271,10.046,1.696c-0.504-1.082-0.87-2.519-0.636-4.256
			C23.323,45.492,19.005,43.22,12.389,45.588z M30.225,50.582l0.002,0.002C30.227,50.584,30.225,50.583,30.225,50.582z
			 M28.915,46.582c-0.513,1.827,0.36,3.134,1.235,3.933c1.757-0.185,2.798-0.739,3.37-1.18c-0.8-1.073-1.611-2.54-2.197-4.574
			C30.015,45.31,29.286,46.067,28.915,46.582z M34.853,42.346c0.41,2.521,1.454,4.259,2.279,5.288
			c0.068,0.057,0.232,0.099,0.269,0.103c0.023-0.01,0.041-0.017,0.066-0.024c2.878-0.937,4.455-2.541,5.309-3.907
			c-1.846-0.268-4.095-1.083-6.396-3.088C35.616,41.214,35.133,41.887,34.853,42.346z M38.548,37.358
			c2.005,1.993,4.202,2.882,6.394,2.57c0.025-0.027,0.084-0.069,0.114-0.093c2.367-1.93,2.627-4.648,2.404-6.646
			c-2.231,0.73-5.154,1.347-8.257,1.115C38.731,35.581,38.589,36.706,38.548,37.358z M38.881,30.195
			c3.468,0.377,6.71-0.604,8.957-1.574c0.467-3.686-1.276-6.76-2.907-8.759c-0.832,1.592-2.014,3.158-3.529,4.674
			c-1.085,1.086-2.313,2.114-3.732,3.126C38.079,28.748,38.553,29.627,38.881,30.195z M48.948,29.101h0.023H48.948z M48.127,28.495
			c-0.027,0.008-0.055,0.02-0.08,0.035C48.075,28.518,48.1,28.507,48.127,28.495z M31.626,22.451
			c1.101,1.289,2.231,2.011,3.037,2.401c5.594-3.846,7.011-7.356,7.362-8.714c-0.018-0.027,0.011-0.259-0.005-0.287
			c-2.315-4.169-5.582-5.199-7.453-5.429C34.967,13.517,34.8,18.169,31.626,22.451z M24.292,9.585
			c0.946,1.193,1.713,2.889,2.333,5.164c0.561,2.059,0.686,4.061,0.365,5.794c-0.034,0.149-0.068,0.293-0.107,0.432
			c0.26-0.015,0.499-0.031,0.713-0.047c0.125-0.009,0.244-0.017,0.353-0.023c3.915-4.419,2.93-9.81,2.456-11.587
			C28.452,8.887,26.402,8.975,24.292,9.585z M22.275,19.936c0.21,0.243,0.39,0.414,0.529,0.529c0.046-0.152,0.118-0.38,0.171-0.681
			c0.196-1.176,0.103-2.62-0.273-4.167c-0.351-1.461-0.964-2.825-1.677-3.744c-0.18-0.251-0.342-0.423-0.469-0.535
			c-0.057,0.157-0.141,0.404-0.226,0.772c-0.182,1.112-0.089,2.558,0.285,4.106C20.963,17.662,21.567,19.016,22.275,19.936z
			 M31.114,9.457h0.005H31.114z"/>
	</g>
</g>
<g id="pie_layer">
</g>
<g id="Pie_Layer_2" display="none">
</g>
<g id="meals_saved" display="none">
</g>
<g id="consumer_ed_hover" display="none">
</g>
<g id="pop_up" display="none">
</g>
<g id="Layer_2">
</g>
<g id="Layer_8">
</g>
</svg>
