<?xml version="1.0" encoding="utf-8"?>
<!-- Generator: Adobe Illustrator 19.1.0, SVG Export Plug-In . SVG Version: 6.00 Build 0)  -->
<svg version="1.1" id="Layer_1" xmlns="http://www.w3.org/2000/svg" xmlns:xlink="http://www.w3.org/1999/xlink" x="0px" y="0px"
	 viewBox="-378 289.419 34.581 34.581" enable-background="new -378 289.419 34.581 34.581" xml:space="preserve">
<g id="bottom">
	<path d="M-360.709,289.419c-9.549,0-17.291,7.742-17.291,17.291c0,9.551,7.742,17.291,17.291,17.291
		c9.549,0,17.291-7.74,17.291-17.291C-343.419,297.161-351.161,289.419-360.709,289.419z M-353.834,303.185
		c0.007,0.152,0.011,0.304,0.011,0.458c0,4.688-3.568,10.093-10.093,10.093c-2.004,0-3.868-0.587-5.438-1.594
		c0.279,0.032,0.56,0.049,0.846,0.049c1.663,0,3.191-0.566,4.405-1.518c-1.551-0.03-2.862-1.055-3.313-2.463
		c0.216,0.04,0.438,0.063,0.667,0.063c0.324,0,0.637-0.044,0.934-0.124c-1.621-0.327-2.845-1.76-2.845-3.478
		c0-0.015,0-0.029,0-0.044c0.479,0.266,1.026,0.424,1.607,0.443c-0.952-0.635-1.578-1.722-1.578-2.953c0-0.65,0.175-1.26,0.48-1.783
		c1.749,2.147,4.364,3.559,7.311,3.706c-0.06-0.26-0.092-0.53-0.092-0.808c0-1.959,1.588-3.546,3.548-3.546
		c1.019,0,1.942,0.431,2.589,1.119c0.807-0.158,1.567-0.454,2.253-0.861c-0.266,0.83-0.827,1.524-1.56,1.963
		c0.718-0.084,1.402-0.276,2.037-0.557C-352.539,302.06-353.141,302.685-353.834,303.185z"/>
</g>
<g id="Farming" display="none">
</g>
<g id="Manufacturing" display="none">
</g>
<g id="Waste_diverted">
</g>
<g id="jobs">
</g>
<g id="consumer_ed_hover">
</g>
<g id="pop_up" display="none">
</g>
</svg>
