<?xml version="1.0" encoding="utf-8"?>
<!-- Generator: Adobe Illustrator 19.1.0, SVG Export Plug-In . SVG Version: 6.00 Build 0)  -->
<svg version="1.1" id="Layer_1" xmlns="http://www.w3.org/2000/svg" xmlns:xlink="http://www.w3.org/1999/xlink" x="0px" y="0px"
	 viewBox="0 0 92.846 92.846" enable-background="new 0 0 92.846 92.846" xml:space="preserve">
<g>
	<g>
		<path d="M62.577,54.035c0,8.922-7.232,16.154-16.154,16.154s-16.154-7.232-16.154-16.154s16.154-31.378,16.154-31.378
			S62.577,45.113,62.577,54.035z"/>
	</g>
	<path d="M46.423,90.525c-24.318,0-44.102-19.784-44.102-44.102S22.105,2.321,46.423,2.321s44.102,19.784,44.102,44.102
		S70.741,90.525,46.423,90.525z M46.423,9.921c-20.127,0-36.502,16.375-36.502,36.502s16.375,36.502,36.502,36.502
		S82.925,66.55,82.925,46.423S66.55,9.921,46.423,9.921z"/>
</g>
</svg>
