<?xml version="1.0" encoding="utf-8"?>
<!-- Generator: Adobe Illustrator 19.1.0, SVG Export Plug-In . SVG Version: 6.00 Build 0)  -->
<svg version="1.1" id="Layer_1" xmlns="http://www.w3.org/2000/svg" xmlns:xlink="http://www.w3.org/1999/xlink" x="0px" y="0px"
	 viewBox="-378 289.419 34.581 34.581" enable-background="new -378 289.419 34.581 34.581" xml:space="preserve">
<g id="bottom">
	<g>
		<path d="M-360.862,304.075c0.134,0,0.24-0.036,0.318-0.11c0.079-0.074,0.119-0.177,0.119-0.306v-2.626
			c0-0.106-0.04-0.19-0.12-0.255c-0.08-0.065-0.186-0.097-0.317-0.097c-0.119,0-0.217,0.032-0.293,0.097
			c-0.074,0.065-0.112,0.15-0.112,0.255v2.626c0,0.133,0.036,0.234,0.106,0.306C-361.093,304.042-360.992,304.075-360.862,304.075z"
			/>
		<path d="M-358.688,308.926c-0.136,0-0.27,0.034-0.404,0.103c-0.131,0.07-0.256,0.173-0.375,0.304v-1.91h-0.884v5.933h0.884v-0.336
			c0.114,0.135,0.241,0.232,0.375,0.295c0.133,0.065,0.285,0.095,0.457,0.095c0.259,0,0.458-0.08,0.594-0.247
			c0.138-0.167,0.206-0.403,0.206-0.711v-2.429c0-0.359-0.072-0.631-0.219-0.819C-358.2,309.019-358.411,308.926-358.688,308.926z
			 M-358.737,312.33c0,0.141-0.025,0.241-0.075,0.302c-0.051,0.063-0.129,0.095-0.236,0.095c-0.074,0-0.144-0.017-0.211-0.049
			c-0.068-0.03-0.137-0.084-0.208-0.154v-2.727c0.06-0.061,0.119-0.106,0.18-0.135c0.061-0.027,0.124-0.042,0.186-0.042
			c0.117,0,0.209,0.038,0.272,0.114c0.062,0.076,0.092,0.188,0.092,0.338C-358.737,310.072-358.737,312.33-358.737,312.33z"/>
		<polygon points="-366.917,308.286 -365.897,308.286 -365.897,313.356 -364.912,313.356 -364.912,308.286 -363.891,308.286 
			-363.891,307.423 -366.917,307.423 		"/>
		<path d="M-361.884,312.303c-0.082,0.095-0.172,0.173-0.271,0.236c-0.098,0.061-0.18,0.091-0.244,0.091
			c-0.081,0-0.141-0.021-0.179-0.07c-0.035-0.046-0.054-0.12-0.054-0.224v-3.357h-0.875v3.66c0,0.262,0.052,0.454,0.153,0.585
			c0.103,0.132,0.254,0.195,0.458,0.195c0.164,0,0.333-0.044,0.508-0.139c0.175-0.093,0.343-0.228,0.504-0.405v0.481h0.875v-4.377
			h-0.875C-361.884,308.979-361.884,312.303-361.884,312.303z"/>
		<path d="M-360.709,289.419c-9.549,0-17.291,7.742-17.291,17.291c0,9.551,7.742,17.291,17.291,17.291
			c9.55,0,17.291-7.74,17.291-17.291C-343.419,297.161-351.16,289.419-360.709,289.419z M-358.624,299.968h0.984v3.696
			c0,0.114,0.023,0.196,0.063,0.247c0.04,0.053,0.109,0.078,0.201,0.078c0.072,0,0.165-0.034,0.275-0.101
			c0.11-0.07,0.211-0.154,0.303-0.26v-3.66h0.986v4.821h-0.986v-0.534c-0.18,0.196-0.369,0.348-0.567,0.45
			c-0.196,0.101-0.386,0.156-0.571,0.156c-0.229,0-0.399-0.074-0.515-0.219c-0.115-0.141-0.173-0.357-0.173-0.644V299.968z
			 M-362.281,301.07c0-0.374,0.133-0.671,0.397-0.891c0.265-0.222,0.623-0.331,1.07-0.331c0.407,0,0.741,0.116,1.003,0.348
			c0.258,0.232,0.388,0.536,0.388,0.901v2.491c0,0.414-0.127,0.735-0.381,0.971c-0.256,0.234-0.608,0.353-1.055,0.353
			c-0.431,0-0.776-0.122-1.034-0.365c-0.258-0.243-0.387-0.568-0.387-0.977v-2.5H-362.281z M-364.963,298.254l0.72,2.613h0.07
			l0.687-2.613h1.126l-1.291,3.825v2.71h-1.109v-2.59l-1.32-3.945H-364.963z M-352.064,312.007c0,1.743-1.415,3.16-3.159,3.16
			h-10.974c-1.745,0-3.158-1.416-3.158-3.16v-2.539c0-1.743,1.413-3.16,3.158-3.16h10.974c1.743,0,3.159,1.416,3.159,3.16V312.007z"
			/>
		<path d="M-356.048,308.871c-0.392,0-0.709,0.118-0.957,0.357c-0.248,0.239-0.371,0.551-0.371,0.929v1.965
			c0,0.422,0.114,0.753,0.338,0.992c0.225,0.243,0.534,0.361,0.925,0.361c0.436,0,0.764-0.112,0.981-0.338
			c0.222-0.228,0.33-0.566,0.33-1.015v-0.224h-0.9v0.198c0,0.258-0.031,0.424-0.087,0.5c-0.058,0.076-0.159,0.114-0.305,0.114
			c-0.139,0-0.238-0.044-0.297-0.133c-0.057-0.091-0.085-0.251-0.085-0.481v-0.823h1.674v-1.117c0-0.416-0.108-0.732-0.323-0.954
			C-355.339,308.981-355.647,308.871-356.048,308.871z M-355.702,310.591h-0.774v-0.441c0-0.184,0.03-0.317,0.091-0.392
			c0.061-0.082,0.16-0.122,0.3-0.122c0.133,0,0.232,0.04,0.291,0.122c0.06,0.076,0.092,0.209,0.092,0.392
			C-355.702,310.15-355.702,310.591-355.702,310.591z"/>
	</g>
</g>
<g id="Farming" display="none">
</g>
<g id="Manufacturing" display="none">
</g>
<g id="Waste_diverted">
</g>
<g id="jobs">
</g>
<g id="consumer_ed_hover">
</g>
<g id="pop_up" display="none">
</g>
</svg>
