<?xml version="1.0" encoding="utf-8"?>
<!-- Generator: Adobe Illustrator 20.1.0, SVG Export Plug-In . SVG Version: 6.00 Build 0)  -->
<svg version="1.1" id="Layer_1" xmlns="http://www.w3.org/2000/svg" xmlns:xlink="http://www.w3.org/1999/xlink" x="0px" y="0px"
	 viewBox="0 0 128.6 133.4" style="enable-background:new 0 0 128.6 133.4;" xml:space="preserve">
<style type="text/css">
	.st0{fill:#DC7727;}
	.st1{opacity:0.44;fill:url(#SVGID_1_);}
	.st2{opacity:0.85;fill:#CE3A31;}
	.st3{opacity:0.58;fill:url(#SVGID_2_);}
	.st4{opacity:0.58;fill:url(#SVGID_3_);}
	.st5{opacity:0.44;fill:url(#SVGID_4_);}
</style>
<g>
	<path class="st0" d="M61,101.6c0,17.6-13.7,31.8-30.5,31.8c-7.5,0-14.3-2.8-19.7-7.5l0,0c0,0,0,0-0.1-0.1c-2.7-2.4-5-5.3-6.8-8.6
		c-1.3-2.3-2.2-4.6-2.8-7c-0.1-0.4-0.2-0.7-0.3-1.1c0-0.1-0.1-0.2-0.1-0.3c-0.5-2.3-0.8-4.7-0.8-7.2c0-1.8,0.1-3.5,0.4-5.1
		C7.2,64,53,29.9,53,29.9c9.9-7.7,3.9-13.6,2-16.5c6.2,8.3,6,17.9,6,17.9l0.1,67.5C61.1,99.6,61,100.6,61,101.6z"/>
	<linearGradient id="SVGID_1_" gradientUnits="userSpaceOnUse" x1="35.7243" y1="93.0227" x2="12.0025" y2="125.4425">
		<stop  offset="0" style="stop-color:#F1D32A"/>
		<stop  offset="1" style="stop-color:#E98042"/>
	</linearGradient>
	<path class="st1" d="M58.2,114.6c0.9-3,0.4-6.7-5.2-11c0,0-21.7-16.2-37.5-36.9c-7.1,9.4-13,19.6-15.1,29.8
		C0.1,98.1,0,99.9,0,101.6c0,2.5,0.3,4.9,0.8,7.2c0,0.1,0.1,0.2,0.1,0.3c0.1,0.4,0.2,0.7,0.3,1.1c0.6,2.4,1.6,4.8,2.8,7
		c1.8,3.3,4.1,6.2,6.8,8.6c0,0,0,0,0.1,0.1l0,0c5.3,4.7,12.2,7.5,19.7,7.5c16.4,0,29.8-13.6,30.5-30.6
		C60.9,104.6,60.5,109.4,58.2,114.6c-0.6,1.9-1.8,3.5-2.7,4.8c-0.2,0.2-0.3,0.5-0.5,0.7c0.1-0.2,0.3-0.5,0.5-0.7"/>
	<path class="st0" d="M61,30.6c0,0.2,0,0.4,0,0.5C61,31,61,30.8,61,30.6z"/>
	<path class="st0" d="M61,66.7l0,35.5c0,0,0,0,0,0.1c0-0.2,0-0.5,0-0.7c0-1,0.1-2,0-3L61,66.7z"/>
	<path class="st2" d="M61,31.2l0,35.5l0-31.9c0.1-1,0-2,0-3c0-0.2,0-0.5,0-0.7C61,31.2,61,31.2,61,31.2z"/>
	<path class="st2" d="M61,102.4c0,0.2,0,0.4,0,0.5C61,102.7,61,102.5,61,102.4z"/>
	<path class="st0" d="M61,102.2l0-35.5l0-35.5c0,0,0,0,0-0.1c0-0.2,0-0.4,0-0.5c-0.1-1.7-0.5-6.5-2.8-11.7c0.9,3,0.4,6.7-5.2,11
		c0,0-21.7,16.2-37.5,36.9C31.3,87.4,53,103.6,53,103.6c5.5,4.3,6.1,8.1,5.2,11c2.3-5.3,2.7-10.1,2.8-11.7c0-0.2,0-0.4,0-0.5
		C61,102.3,61,102.2,61,102.2z"/>
	<path class="st2" d="M67.6,31.8C67.6,14.2,81.3,0,98.1,0c7.5,0,14.3,2.8,19.7,7.5l0,0c0,0,0,0,0.1,0.1c2.7,2.4,5,5.3,6.8,8.6
		c1.3,2.3,2.2,4.6,2.8,7c0.1,0.4,0.2,0.7,0.3,1.1c0,0.1,0.1,0.2,0.1,0.3c0.5,2.3,0.8,4.7,0.8,7.2c0,1.8-0.1,3.5-0.4,5.1
		c-6.8,32.4-52.6,66.6-52.6,66.6c-9.9,7.7-3.9,13.6-2,16.5c-6.2-8.3-6-17.9-6-17.9l-0.1-67.5C67.5,33.8,67.6,32.8,67.6,31.8z"/>
	<path class="st0" d="M67.7,30.6c0,0.2,0,0.4,0,0.5C67.6,31,67.6,30.8,67.7,30.6z"/>
	<path class="st0" d="M67.6,66.7l0,35.5c0,0,0,0,0,0.1c0-0.2,0-0.5,0-0.7c0-1-0.1-2,0-3L67.6,66.7z"/>
	<path class="st2" d="M67.6,31.2l0,35.5l0-31.9c-0.1-1,0-2,0-3c0-0.2,0-0.5,0-0.7C67.6,31.2,67.6,31.2,67.6,31.2z"/>
	<path class="st2" d="M67.6,102.4c0,0.2,0,0.4,0,0.5C67.6,102.7,67.6,102.5,67.6,102.4z"/>
	<path class="st0" d="M67.6,102.2l0-35.5l0-35.5c0,0,0,0,0-0.1c0-0.2,0-0.4,0-0.5c0.1-1.7,0.5-6.5,2.8-11.7c-0.9,3-0.4,6.7,5.2,11
		c0,0,21.7,16.2,37.5,36.9c-15.8,20.7-37.5,36.9-37.5,36.9c-5.5,4.3-6.1,8.1-5.2,11c-2.3-5.3-2.7-10.1-2.8-11.7c0-0.2,0-0.4,0-0.5
		C67.6,102.3,67.6,102.2,67.6,102.2z"/>
	
		<linearGradient id="SVGID_2_" gradientUnits="userSpaceOnUse" x1="6766.6885" y1="57.8076" x2="6680.4995" y2="55.8308" gradientTransform="matrix(-1 0 0 1 6829.0654 0)">
		<stop  offset="0" style="stop-color:#C77029"/>
		<stop  offset="1" style="stop-color:#E02572"/>
	</linearGradient>
	<path class="st3" d="M67.6,102.2c0,0,0,0,0,0.1c0,0.2,0,0.4,0,0.5c0.1,1.7,0.5,6.5,2.8,11.7c-0.9-3-0.4-6.7,5.2-11
		c0,0,21.7-16.2,37.5-36.9c7.1-9.4,13-19.6,15.1-29.8c0.3-1.7,0.4-3.4,0.4-5.1c0-2.5-0.3-4.9-0.8-7.2c0-0.1-0.1-0.2-0.1-0.3
		c-0.1-0.4-0.2-0.7-0.3-1.1c-0.6-2.4-1.6-4.8-2.8-7c-1.8-3.3-4.1-6.2-6.8-8.6c0,0,0,0-0.1-0.1l0,0C112.5,2.8,105.6,0,98.1,0
		C82.1,0,68.9,13,67.7,29.4c0,0.5-0.1,0.8-0.1,1.1c0,0.2,0,0.4,0,0.5c0,0.1,0,0.1,0,0.1l0,35.5L67.6,102.2z M73.1,14.1
		c-1.1,1.6-2,3.2-2.7,4.8C71,16.9,72.2,15.3,73.1,14.1z"/>
	<path class="st2" d="M58.1,114.8c3-6.6,2.9-12.6,2.9-12.6l0.1-67.5c0.1-1,0-2,0-3C61,14.2,47.4,0,30.5,0C23,0,16.2,2.8,10.9,7.5
		l0,0c0,0,0,0-0.1,0.1c-2.7,2.4-5,5.3-6.8,8.6c-1.3,2.3-2.2,4.6-2.8,7C1,23.5,1,23.9,0.9,24.3c0,0.1-0.1,0.2-0.1,0.3
		C0.3,26.9,0,29.3,0,31.8c0,1.8,0.1,3.5,0.4,5.1C7.2,69.4,53,103.6,53,103.6c5.5,4.3,6.1,8.1,5.2,11"/>
	<linearGradient id="SVGID_3_" gradientUnits="userSpaceOnUse" x1="66.2662" y1="57.8076" x2="-19.9229" y2="55.8308">
		<stop  offset="0" style="stop-color:#C77029"/>
		<stop  offset="1" style="stop-color:#E02572"/>
	</linearGradient>
	<path class="st4" d="M61,66.7l0-35.5c0,0,0,0,0-0.1c0-0.2,0-0.4,0-0.5c0-0.3,0-0.7-0.1-1.1C59.7,13,46.6,0,30.5,0
		C23,0,16.2,2.8,10.9,7.5l0,0c0,0,0,0-0.1,0.1c-2.7,2.4-5,5.3-6.8,8.6c-1.3,2.3-2.2,4.6-2.8,7C1,23.5,1,23.9,0.9,24.3
		c0,0.1-0.1,0.2-0.1,0.3C0.3,26.9,0,29.3,0,31.8c0,1.8,0.1,3.5,0.4,5.1c2.1,10.1,8,20.4,15.1,29.8C31.3,87.4,53,103.6,53,103.6
		c5.5,4.3,6.1,8.1,5.2,11c2.3-5.3,2.7-10.1,2.8-11.7c0-0.2,0-0.4,0-0.5c0-0.1,0-0.1,0-0.1L61,66.7z M58.2,18.8
		c-0.7-1.6-1.6-3.2-2.7-4.8C56.4,15.3,57.6,16.9,58.2,18.8z"/>
	<path class="st0" d="M67.6,101.6c0,17.6,13.7,31.8,30.5,31.8c7.5,0,14.3-2.8,19.7-7.5l0,0c0,0,0,0,0.1-0.1c2.7-2.4,5-5.3,6.8-8.6
		c1.3-2.3,2.2-4.6,2.8-7c0.1-0.4,0.2-0.7,0.3-1.1c0-0.1,0.1-0.2,0.1-0.3c0.5-2.3,0.8-4.7,0.8-7.2c0-1.8-0.1-3.5-0.4-5.1
		C121.5,64,75.6,29.9,75.6,29.9c-9.9-7.7-3.9-13.6-2-16.5c-6.2,8.3-6,17.9-6,17.9l-0.1,67.5C67.5,99.6,67.6,100.6,67.6,101.6z"/>
	
		<linearGradient id="SVGID_4_" gradientUnits="userSpaceOnUse" x1="6736.1465" y1="93.0227" x2="6712.4248" y2="125.4425" gradientTransform="matrix(-1 0 0 1 6829.0654 0)">
		<stop  offset="0" style="stop-color:#F1D32A"/>
		<stop  offset="1" style="stop-color:#E98042"/>
	</linearGradient>
	<path class="st5" d="M73.1,119.4c0.2,0.2,0.3,0.5,0.5,0.7C73.5,119.9,73.3,119.6,73.1,119.4c-1.1-1.6-2-3.2-2.7-4.8
		c-0.9-3-0.4-6.7,5.2-11c0,0,21.7-16.2,37.5-36.9c7.1,9.4,13,19.6,15.1,29.8c0.3,1.7,0.4,3.4,0.4,5.1c0,2.5-0.3,4.9-0.8,7.2
		c0,0.1-0.1,0.2-0.1,0.3c-0.1,0.4-0.2,0.7-0.3,1.1c-0.6,2.4-1.6,4.8-2.8,7c-1.8,3.3-4.1,6.2-6.8,8.6c0,0,0,0-0.1,0.1l0,0
		c-5.3,4.7-12.2,7.5-19.7,7.5c-16.4,0-29.8-13.6-30.5-30.6c0.1,1.7,0.5,6.5,2.8,11.7C71,116.5,72.2,118.1,73.1,119.4z"/>
</g>
</svg>
