<?xml version="1.0" encoding="utf-8"?>
<!-- Generator: Adobe Illustrator 20.1.0, SVG Export Plug-In . SVG Version: 6.00 Build 0)  -->
<svg version="1.1" id="Layer_1" xmlns="http://www.w3.org/2000/svg" xmlns:xlink="http://www.w3.org/1999/xlink" x="0px" y="0px"
	 viewBox="0 0 365 60" style="enable-background:new 0 0 365 60;" xml:space="preserve">
<style type="text/css">
	.st0{fill:#272829;}
	.st1{fill:#DD7727;}
	.st2{opacity:0.44;fill:url(#SVGID_1_);}
	.st3{opacity:0.85;fill:#CE3A31;}
	.st4{opacity:0.58;fill:url(#SVGID_2_);}
	.st5{opacity:0.58;fill:url(#SVGID_3_);}
	.st6{opacity:0.44;fill:url(#SVGID_4_);}
</style>
<g>
	<g>
		<g>
			<path class="st0" d="M74.9,44.3c-0.3,0-0.6-0.1-0.8-0.4c-0.2-0.2-0.3-0.5-0.3-0.9V17.4c0-0.3,0.1-0.6,0.4-0.9
				c0.2-0.2,0.5-0.4,0.9-0.4h6.2c2,0,3.7,0.7,5,2.1c1.4,1.4,2.1,3.2,2.1,5.3c0,2-0.8,3.7-2.4,5.1c1.4,0.6,2.6,1.5,3.6,2.8
				c1,1.4,1.6,3,1.6,4.8c0,2.2-0.8,4.2-2.4,5.8c-1.6,1.6-3.5,2.4-5.8,2.4H74.9z M82.9,41.8c1.5,0,2.9-0.6,4-1.7
				c1.1-1.1,1.7-2.5,1.7-4c0-1.5-0.6-2.9-1.7-4c-1.1-1.1-2.4-1.7-4-1.7h-6.6v11.4H82.9z M81.1,27.9c1.3,0,2.4-0.5,3.3-1.4
				c0.9-0.9,1.4-2,1.4-3.3c0-1.3-0.5-2.4-1.4-3.3c-0.9-0.9-2-1.4-3.3-1.4h-4.9v9.3H81.1z"/>
			<path class="st0" d="M103.7,44.3c-2.6,0-4.8-1-6.7-2.9c-1.8-2-2.8-4.3-2.8-7c0-2.7,0.9-5,2.8-7c1.8-2,4.1-2.9,6.7-2.9
				s4.8,1,6.7,2.9c1.8,2,2.8,4.3,2.8,7c0,2.7-0.9,5-2.8,7C108.5,43.3,106.3,44.3,103.7,44.3z M103.7,26.8c-1.9,0-3.5,0.7-4.9,2.2
				c-1.4,1.5-2.1,3.3-2.1,5.3c0,2.1,0.7,3.9,2.1,5.3c1.4,1.5,3,2.2,4.9,2.2c1.9,0,3.5-0.7,4.9-2.2c1.4-1.5,2.1-3.3,2.1-5.3
				c0-2.1-0.7-3.9-2.1-5.3C107.2,27.6,105.6,26.8,103.7,26.8z"/>
			<path class="st0" d="M133.3,44.3c-0.3,0-0.6-0.1-0.9-0.4c-0.2-0.2-0.4-0.5-0.4-0.9V32.6c0-1.6-0.6-2.9-1.7-4
				c-1.1-1.1-2.5-1.7-4-1.7c-1.6,0-2.9,0.6-4,1.7c-1.1,1.1-1.7,2.5-1.7,4v10.7l0,0c-0.2,0.8-0.7,1-1.2,1h-0.3l0,0
				c-0.4-0.1-0.6-0.3-0.8-0.6c0,0-0.1-0.1-0.1-0.2l0-0.1V25.7c0-0.3,0.1-0.6,0.4-0.9c0.2-0.2,0.5-0.4,0.9-0.4c0.3,0,0.6,0.1,0.8,0.4
				c0.2,0.2,0.3,0.5,0.3,0.9v1.2c1.5-1.6,3.4-2.4,5.5-2.4c2.4,0,4.4,0.8,6,2.4c1.6,1.6,2.4,3.5,2.4,5.7v10.5c0,0.3-0.1,0.6-0.4,0.9
				C133.9,44.2,133.7,44.3,133.3,44.3z"/>
			<path class="st0" d="M156.5,44.3c-0.3,0-0.6-0.1-0.9-0.4c-0.2-0.2-0.4-0.5-0.4-0.9V41c-0.8,0.9-1.7,1.7-2.8,2.3
				c-1.3,0.7-2.7,1.1-4.2,1.1c-2.6,0-4.8-1-6.7-2.9c-1.8-1.9-2.8-4.3-2.8-7s0.9-5.1,2.8-7c1.8-1.9,4.1-2.9,6.7-2.9
				c1.5,0,2.9,0.4,4.2,1.1c1.1,0.6,2,1.3,2.8,2.2v-2.1c0-0.3,0.1-0.6,0.4-0.9c0.2-0.2,0.5-0.4,0.9-0.4c0.3,0,0.6,0.1,0.9,0.4
				c0.2,0.2,0.4,0.5,0.4,0.9v17.5c0,0.3-0.1,0.6-0.4,0.9C157.1,44.2,156.8,44.3,156.5,44.3z M148.3,26.8c-1.9,0-3.6,0.7-4.9,2.2
				c-1.4,1.5-2.1,3.3-2.1,5.3s0.7,3.9,2.1,5.3c1.4,1.5,3,2.2,4.9,2.2c1.9,0,3.6-0.7,4.9-2.2c1.4-1.5,2.1-3.2,2.1-5.3
				s-0.7-3.9-2.1-5.3C151.8,27.6,150.2,26.8,148.3,26.8z"/>
			<path class="st0" d="M167.4,44.4c-0.3,0-0.6-0.1-0.9-0.3c-0.3-0.2-0.4-0.5-0.4-0.9V26.6h-2.3c-0.3,0-0.6-0.1-0.9-0.4
				c-0.2-0.2-0.3-0.5-0.3-0.9c0-0.3,0.1-0.6,0.4-0.9c0.2-0.2,0.5-0.4,0.9-0.4h2.3v-1.8c0.1-2.1,0.5-3.7,1.3-4.7
				c0.9-1,2.3-1.5,4.1-1.5c0.3,0,0.6,0.1,0.9,0.4c0.2,0.2,0.3,0.5,0.3,0.9c0,0.3-0.1,0.6-0.4,0.9c-0.2,0.2-0.5,0.4-0.9,0.4
				c-1.1,0-1.9,0.2-2.3,0.7c-0.4,0.5-0.6,1.5-0.6,3v1.8h2.5c0.3,0,0.6,0.1,0.9,0.3c0.3,0.2,0.4,0.5,0.4,0.9c0,0.3-0.1,0.6-0.4,0.9
				s-0.5,0.4-0.9,0.4h-2.5v16.6c0,0.3-0.1,0.6-0.4,0.9C168.1,44.2,167.8,44.4,167.4,44.4z"/>
			<path class="st0" d="M177.7,44.3c-0.3,0-0.6-0.1-0.9-0.4c-0.2-0.2-0.4-0.5-0.4-0.9V25.6c0-0.3,0.1-0.6,0.4-0.9
				c0.2-0.2,0.5-0.4,0.9-0.4c0.3,0,0.6,0.1,0.9,0.4c0.2,0.2,0.4,0.5,0.4,0.9v17.5c0,0.3-0.1,0.6-0.4,0.9
				C178.4,44.2,178.1,44.3,177.7,44.3z M177.7,21.5c-0.3,0-0.6-0.1-0.9-0.4c-0.2-0.2-0.3-0.6-0.3-0.9v-0.9c0-0.3,0.1-0.6,0.4-0.9
				c0.2-0.2,0.5-0.4,0.9-0.4c0.3,0,0.6,0.1,0.9,0.3c0.3,0.2,0.4,0.5,0.4,0.9v0.9c0,0.4-0.1,0.7-0.4,0.9
				C178.4,21.4,178.1,21.5,177.7,21.5z"/>
			<path class="st0" d="M202.7,44.3c-0.3,0-0.6-0.1-0.9-0.3c-0.3-0.2-0.4-0.5-0.4-0.9v-2c-0.8,0.9-1.8,1.7-2.8,2.2
				c-1.3,0.7-2.8,1-4.3,1c-2.7,0-5-1-6.8-2.9c-1.9-1.9-2.8-4.3-2.8-7c0-2.7,0.9-5.1,2.8-7c1.9-1.9,4.2-2.9,6.8-2.9
				c1.5,0,3,0.4,4.3,1.1c1.1,0.6,2,1.3,2.8,2.2V17.4c0-0.3,0.1-0.6,0.4-0.9c0.2-0.2,0.5-0.3,0.9-0.3c0.3,0,0.6,0.1,0.9,0.4
				c0.2,0.2,0.4,0.5,0.4,0.9v25.7c0,0.3-0.1,0.6-0.4,0.9C203.3,44.2,203.1,44.3,202.7,44.3z M194.3,26.9c-1.9,0-3.6,0.7-5,2.2
				c-1.4,1.5-2.1,3.2-2.1,5.3s0.7,3.8,2.1,5.3c1.4,1.4,3.1,2.2,5,2.2c1.9,0,3.6-0.7,5-2.1c1.4-1.4,2.1-3.1,2.2-5.1v-0.6
				c-0.1-2-0.8-3.7-2.2-5.1C197.9,27.6,196.2,26.9,194.3,26.9z"/>
			<path class="st0" d="M218.8,44.3c-2.7,0-5-1-6.8-2.9c-1.9-1.9-2.8-4.3-2.8-7c0-2.7,0.9-5.1,2.8-7c1.9-1.9,4.1-2.9,6.7-2.9
				c2.6,0,4.8,0.9,6.6,2.7c1.8,1.8,2.8,4,3,6.6l0,0.2c0,0.3-0.1,0.6-0.4,0.8c-0.2,0.2-0.5,0.3-0.8,0.3h-15.6
				c0.2,1.9,0.9,3.5,2.2,4.8c1.4,1.4,3.1,2.1,5,2.1c1.2,0,2.4-0.3,3.5-0.9c1.1-0.6,1.9-1.4,2.5-2.5c0.2-0.4,0.6-0.6,0.9-0.6
				c0.2,0,0.4,0.1,0.7,0.2c0.7,0.5,0.8,1.1,0.4,1.7c-0.9,1.4-2,2.5-3.4,3.3C221.9,43.9,220.4,44.3,218.8,44.3z M225.7,32.6
				c-0.3-1.6-1.1-3-2.4-4c-1.3-1.1-2.9-1.7-4.6-1.7c-1.7,0-3.3,0.6-4.6,1.7c-1.2,1.1-2.1,2.4-2.4,4H225.7z"/>
		</g>
		<g>
			<path class="st0" d="M243.1,43.8c-0.3,0-0.6-0.1-0.8-0.4c-0.2-0.2-0.3-0.5-0.3-0.9V16.9c0-0.3,0.1-0.6,0.4-0.9
				c0.2-0.2,0.5-0.4,0.9-0.4h6.2c2,0,3.7,0.7,5,2.1c1.4,1.4,2.1,3.2,2.1,5.3c0,2-0.8,3.7-2.4,5.1c1.4,0.6,2.6,1.5,3.6,2.8
				c1,1.4,1.6,3,1.6,4.8c0,2.2-0.8,4.2-2.4,5.8c-1.6,1.6-3.5,2.4-5.8,2.4H243.1z M251,41.3c1.5,0,2.9-0.6,4-1.7
				c1.1-1.1,1.7-2.5,1.7-4c0-1.5-0.6-2.9-1.7-4c-1.1-1.1-2.4-1.7-4-1.7h-6.6v11.4H251z M249.3,27.5c1.3,0,2.4-0.5,3.3-1.4
				c0.9-0.9,1.4-2,1.4-3.3c0-1.3-0.5-2.4-1.4-3.3c-0.9-0.9-2-1.4-3.3-1.4h-4.9v9.3H249.3z"/>
			<path class="st0" d="M264.6,43.8c-0.3,0-0.6-0.1-0.9-0.4c-0.2-0.2-0.4-0.5-0.4-0.9V25.2c0-0.3,0.1-0.6,0.4-0.9
				c0.2-0.2,0.5-0.4,0.9-0.4c0.3,0,0.6,0.1,0.9,0.4c0.2,0.2,0.4,0.5,0.4,0.9v3.3c2-3,4.6-4.5,7.7-4.5c0.3,0,0.6,0.1,0.9,0.4
				c0.2,0.2,0.4,0.5,0.4,0.9c0,0.3-0.1,0.6-0.4,0.9s-0.5,0.4-0.9,0.4c-2,0-3.8,1-5.4,3.1c-0.9,1.2-1.7,2.7-2.3,4.4
				c0,0.1-0.1,0.2-0.1,0.2v8.5c0,0.3-0.1,0.6-0.4,0.9C265.2,43.7,264.9,43.8,264.6,43.8z"/>
			<path class="st0" d="M294.6,43.8c-0.3,0-0.6-0.1-0.9-0.4c-0.2-0.2-0.4-0.5-0.4-0.9v-2.1c-0.8,0.9-1.7,1.7-2.8,2.3
				c-1.3,0.7-2.7,1.1-4.2,1.1c-2.6,0-4.8-1-6.7-2.9c-1.8-1.9-2.8-4.3-2.8-7s0.9-5.1,2.8-7c1.8-1.9,4.1-2.9,6.7-2.9
				c1.5,0,2.9,0.4,4.2,1.1c1.1,0.6,2,1.3,2.8,2.2v-2.1c0-0.3,0.1-0.6,0.4-0.9c0.2-0.2,0.5-0.4,0.9-0.4c0.3,0,0.6,0.1,0.9,0.4
				c0.2,0.2,0.4,0.5,0.4,0.9v17.5c0,0.3-0.1,0.6-0.4,0.9C295.3,43.7,295,43.8,294.6,43.8z M286.4,26.3c-1.9,0-3.6,0.7-4.9,2.2
				c-1.4,1.5-2.1,3.3-2.1,5.3s0.7,3.9,2.1,5.3c1.4,1.5,3,2.2,4.9,2.2c1.9,0,3.6-0.7,4.9-2.2c1.4-1.5,2.1-3.2,2.1-5.3
				s-0.7-3.9-2.1-5.3C290,27.1,288.3,26.3,286.4,26.3z"/>
			<path class="st0" d="M317,43.8c-0.3,0-0.6-0.1-0.9-0.4c-0.2-0.2-0.4-0.5-0.4-0.9V32.1c0-1.6-0.6-2.9-1.7-4
				c-1.1-1.1-2.5-1.7-4-1.7c-1.6,0-2.9,0.6-4,1.7c-1.1,1.1-1.7,2.5-1.7,4v10.7l0,0c-0.2,0.8-0.7,1-1.2,1h-0.3l0,0
				c-0.4-0.1-0.6-0.3-0.8-0.6c0,0-0.1-0.1-0.1-0.2l0-0.1V25.2c0-0.3,0.1-0.6,0.4-0.9c0.2-0.2,0.5-0.4,0.9-0.4c0.3,0,0.6,0.1,0.8,0.4
				c0.2,0.2,0.3,0.5,0.3,0.9v1.2c1.5-1.6,3.4-2.4,5.5-2.4c2.4,0,4.4,0.8,6,2.4c1.6,1.6,2.4,3.5,2.4,5.7v10.5c0,0.3-0.1,0.6-0.4,0.9
				C317.6,43.7,317.3,43.8,317,43.8z"/>
			<path class="st0" d="M341.3,43.8c-0.3,0-0.6-0.1-0.9-0.3c-0.3-0.2-0.4-0.5-0.4-0.9v-2c-0.8,0.9-1.8,1.7-2.8,2.2
				c-1.3,0.7-2.8,1-4.3,1c-2.7,0-5-1-6.8-2.9c-1.9-1.9-2.8-4.3-2.8-7c0-2.7,0.9-5.1,2.8-7c1.9-1.9,4.2-2.9,6.8-2.9
				c1.5,0,3,0.4,4.3,1.1c1.1,0.6,2,1.3,2.8,2.2V16.9c0-0.3,0.1-0.6,0.4-0.9c0.2-0.2,0.5-0.3,0.9-0.3c0.3,0,0.6,0.1,0.9,0.4
				c0.2,0.2,0.4,0.5,0.4,0.9v25.7c0,0.3-0.1,0.6-0.4,0.9C341.9,43.7,341.6,43.8,341.3,43.8z M332.9,26.4c-1.9,0-3.6,0.7-5,2.2
				c-1.4,1.5-2.1,3.2-2.1,5.3s0.7,3.8,2.1,5.3c1.4,1.4,3.1,2.2,5,2.2c1.9,0,3.6-0.7,5-2.1c1.4-1.4,2.1-3.1,2.2-5.1v-0.6
				c-0.1-2-0.8-3.7-2.2-5.1C336.5,27.1,334.8,26.4,332.9,26.4z"/>
			<path class="st0" d="M355.2,43.8c-2.6,0-5-1-7.3-2.8c-0.6-0.5-0.6-1.1-0.2-1.6c0.2-0.3,0.5-0.4,0.8-0.5c0,0,0.1,0,0.1,0
				c0.3,0,0.6,0.1,0.8,0.3c2,1.4,3.8,2.2,5.4,2.2c1.6,0,2.9-0.4,3.8-1.1c0.9-0.6,1.4-1.3,1.3-2.1c0-0.8-0.4-1.5-1.2-2.1
				c-0.8-0.7-2.2-1.1-4-1.4l0,0l-0.1,0c-2.1-0.4-3.5-0.9-4.5-1.5c-1.5-0.8-2.2-2.1-2.2-3.7c0-1.6,0.7-2.9,2.2-4
				c1.3-0.9,3-1.4,4.9-1.4c0.8,0,1.6,0.1,2.4,0.4c0.8,0.3,1.4,0.5,1.8,0.7c0.4,0.2,1,0.6,1.7,1c0.3,0.2,0.4,0.5,0.5,0.8
				c0.1,0.3,0,0.6-0.2,0.9c-0.2,0.3-0.4,0.4-0.8,0.5c-0.1,0-0.2,0-0.3,0c-0.2,0-0.4-0.1-0.6-0.2c-0.7-0.4-1.2-0.8-1.5-1
				c-0.3-0.2-0.8-0.4-1.4-0.6c-0.6-0.2-1.2-0.3-1.7-0.3c-1.5,0-2.6,0.3-3.4,1c-0.8,0.6-1.2,1.3-1.2,2c0,0.7,0.3,1.3,1,1.8
				c0.9,0.6,2.2,1,3.8,1.3l0,0c1.8,0.3,3.4,0.8,4.8,1.6c1.5,1,2.3,2.4,2.3,4c0,1.7-0.8,3.1-2.3,4.2
				C358.8,43.3,357.1,43.8,355.2,43.8L355.2,43.8z"/>
		</g>
	</g>
	<g>
		<path class="st1" d="M27.8,44.5c0,7.3-5.7,13.2-12.7,13.2c-3.1,0-6-1.2-8.2-3.1l0,0c0,0,0,0,0,0c-1.1-1-2.1-2.2-2.8-3.6
			c-0.5-0.9-0.9-1.9-1.2-2.9c0-0.1-0.1-0.3-0.1-0.5c0,0,0-0.1,0-0.1c-0.2-1-0.3-2-0.3-3c0-0.7,0-1.4,0.2-2.1
			c2.8-13.5,21.9-27.7,21.9-27.7c4.1-3.2,1.6-5.6,0.8-6.9c2.6,3.5,2.5,7.4,2.5,7.4l0,28C27.9,43.7,27.8,44.1,27.8,44.5z"/>
		<linearGradient id="SVGID_1_" gradientUnits="userSpaceOnUse" x1="17.3022" y1="40.925" x2="7.4494" y2="54.3905">
			<stop  offset="0" style="stop-color:#F2D42A"/>
			<stop  offset="1" style="stop-color:#EA8042"/>
		</linearGradient>
		<path class="st2" d="M26.6,49.9c0.4-1.2,0.1-2.8-2.1-4.6c0,0-9-6.7-15.6-15.3c-3,3.9-5.4,8.2-6.3,12.4c-0.1,0.7-0.2,1.4-0.2,2.1
			c0,1,0.1,2,0.3,3c0,0,0,0.1,0,0.1c0,0.2,0.1,0.3,0.1,0.5c0.3,1,0.6,2,1.2,2.9c0.7,1.4,1.7,2.6,2.8,3.6c0,0,0,0,0,0l0,0
			c2.2,1.9,5.1,3.1,8.2,3.1c6.8,0,12.4-5.6,12.7-12.7C27.8,45.7,27.6,47.7,26.6,49.9c-0.2,0.8-0.7,1.5-1.1,2
			c-0.1,0.1-0.1,0.2-0.2,0.3c0.1-0.1,0.1-0.2,0.2-0.3"/>
		<path class="st1" d="M27.8,15c0,0.1,0,0.1,0,0.2C27.8,15.2,27.8,15.1,27.8,15z"/>
		<path class="st1" d="M27.8,30l0,14.7c0,0,0,0,0,0.1c0-0.1,0-0.2,0-0.3c0-0.4,0.1-0.8,0-1.2L27.8,30z"/>
		<path class="st3" d="M27.8,15.3l0,14.7l0-13.3c0-0.4,0-0.8,0-1.2C27.8,15.4,27.8,15.3,27.8,15.3C27.8,15.2,27.8,15.3,27.8,15.3z"
			/>
		<path class="st3" d="M27.8,44.8c0,0.1,0,0.1,0,0.2C27.8,44.9,27.8,44.8,27.8,44.8z"/>
		<path class="st1" d="M27.8,44.7l0-14.7l0-14.7c0,0,0,0,0-0.1c0-0.1,0-0.1,0-0.2c0-0.7-0.2-2.7-1.2-4.9c0.4,1.2,0.1,2.8-2.1,4.6
			c0,0-9,6.7-15.6,15.3c6.5,8.6,15.6,15.3,15.6,15.3c2.3,1.8,2.5,3.3,2.1,4.6c1-2.2,1.1-4.2,1.2-4.9C27.8,44.9,27.8,44.9,27.8,44.7
			C27.8,44.8,27.8,44.7,27.8,44.7z"/>
		<path class="st3" d="M30.6,15.5c0-7.3,5.7-13.2,12.7-13.2c3.1,0,6,1.2,8.2,3.1l0,0c0,0,0,0,0,0c1.1,1,2.1,2.2,2.8,3.6
			c0.5,0.9,0.9,1.9,1.2,2.9c0,0.1,0.1,0.3,0.1,0.5c0,0,0,0.1,0,0.1c0.2,1,0.3,2,0.3,3c0,0.7,0,1.4-0.2,2.1
			c-2.8,13.5-21.9,27.7-21.9,27.7c-4.1,3.2-1.6,5.6-0.8,6.9c-2.6-3.5-2.5-7.4-2.5-7.4l0-28C30.5,16.3,30.6,15.9,30.6,15.5z"/>
		<path class="st1" d="M30.6,15c0,0.1,0,0.1,0,0.2C30.6,15.2,30.6,15.1,30.6,15z"/>
		<path class="st1" d="M30.5,30l0,14.7c0,0,0,0,0,0.1c0-0.1,0-0.2,0-0.3c0-0.4-0.1-0.8,0-1.2L30.5,30z"/>
		<path class="st3" d="M30.6,15.3l0,14.7l0-13.3c0-0.4,0-0.8,0-1.2C30.6,15.4,30.6,15.3,30.6,15.3C30.6,15.2,30.6,15.3,30.6,15.3z"
			/>
		<path class="st3" d="M30.6,44.8c0,0.1,0,0.1,0,0.2C30.6,44.9,30.6,44.8,30.6,44.8z"/>
		<path class="st1" d="M30.6,44.7l0-14.7l0-14.7c0,0,0,0,0-0.1c0-0.1,0-0.1,0-0.2c0-0.7,0.2-2.7,1.2-4.9c-0.4,1.2-0.1,2.8,2.1,4.6
			c0,0,9,6.7,15.6,15.3c-6.5,8.6-15.6,15.3-15.6,15.3c-2.3,1.8-2.5,3.3-2.1,4.6c-1-2.2-1.1-4.2-1.2-4.9
			C30.6,44.9,30.6,44.9,30.6,44.7C30.6,44.8,30.6,44.7,30.6,44.7z"/>
		
			<linearGradient id="SVGID_2_" gradientUnits="userSpaceOnUse" x1="7035.9873" y1="26.2985" x2="7000.1885" y2="25.4774" gradientTransform="matrix(-1 0 0 1 7064.3594 0)">
			<stop  offset="0" style="stop-color:#C87029"/>
			<stop  offset="1" style="stop-color:#E12772"/>
		</linearGradient>
		<path class="st4" d="M30.6,44.7C30.6,44.7,30.6,44.8,30.6,44.7c0,0.1,0,0.2,0,0.3c0,0.7,0.2,2.7,1.2,4.9c-0.4-1.2-0.1-2.8,2.1-4.6
			c0,0,9-6.7,15.6-15.3c3-3.9,5.4-8.2,6.3-12.4c0.1-0.7,0.2-1.4,0.2-2.1c0-1-0.1-2-0.3-3c0,0,0-0.1,0-0.1c0-0.2-0.1-0.3-0.1-0.5
			c-0.3-1-0.6-2-1.2-2.9c-0.7-1.4-1.7-2.6-2.8-3.6c0,0,0,0,0,0l0,0c-2.2-1.9-5.1-3.1-8.2-3.1c-6.7,0-12.1,5.4-12.6,12.2
			c0,0.2,0,0.3,0,0.5c0,0.1,0,0.1,0,0.2c0,0,0,0.1,0,0.1l0,14.7L30.6,44.7z M32.8,8.1c-0.5,0.7-0.8,1.3-1.1,2
			C32,9.3,32.5,8.6,32.8,8.1z"/>
		<path class="st3" d="M26.6,50c1.2-2.7,1.2-5.2,1.2-5.2l0-28c0-0.4,0-0.8,0-1.2c0-7.3-5.7-13.2-12.7-13.2c-3.1,0-6,1.2-8.2,3.1l0,0
			c0,0,0,0,0,0C5.8,6.4,4.8,7.6,4.1,9c-0.5,0.9-0.9,1.9-1.2,2.9c0,0.1-0.1,0.3-0.1,0.5c0,0,0,0.1,0,0.1c-0.2,1-0.3,2-0.3,3
			c0,0.7,0,1.4,0.2,2.1c2.8,13.5,21.9,27.7,21.9,27.7C26.8,47.1,27,48.7,26.6,50"/>
		<linearGradient id="SVGID_3_" gradientUnits="userSpaceOnUse" x1="29.9877" y1="26.2985" x2="-5.8108" y2="25.4774">
			<stop  offset="0" style="stop-color:#C87029"/>
			<stop  offset="1" style="stop-color:#E12772"/>
		</linearGradient>
		<path class="st5" d="M27.8,30l0-14.7c0,0,0,0,0-0.1c0-0.1,0-0.1,0-0.2c0-0.1,0-0.3,0-0.5c-0.5-6.8-6-12.2-12.6-12.2
			c-3.1,0-6,1.2-8.2,3.1l0,0c0,0,0,0,0,0C5.8,6.4,4.8,7.6,4.1,9c-0.5,0.9-0.9,1.9-1.2,2.9c0,0.1-0.1,0.3-0.1,0.5c0,0,0,0.1,0,0.1
			c-0.2,1-0.3,2-0.3,3c0,0.7,0,1.4,0.2,2.1C3.5,21.8,6,26.1,8.9,30c6.5,8.6,15.6,15.3,15.6,15.3c2.3,1.8,2.5,3.3,2.1,4.6
			c1-2.2,1.1-4.2,1.2-4.9c0-0.1,0-0.1,0-0.2c0,0,0-0.1,0-0.1L27.8,30z M26.6,10.1c-0.3-0.7-0.7-1.3-1.1-2
			C25.9,8.6,26.4,9.3,26.6,10.1z"/>
		<path class="st1" d="M30.6,44.5c0,7.3,5.7,13.2,12.7,13.2c3.1,0,6-1.2,8.2-3.1l0,0c0,0,0,0,0,0c1.1-1,2.1-2.2,2.8-3.6
			c0.5-0.9,0.9-1.9,1.2-2.9c0-0.1,0.1-0.3,0.1-0.5c0,0,0-0.1,0-0.1c0.2-1,0.3-2,0.3-3c0-0.7,0-1.4-0.2-2.1
			c-2.8-13.5-21.9-27.7-21.9-27.7C29.8,11.5,32.3,9,33,7.8c-2.6,3.5-2.5,7.4-2.5,7.4l0,28C30.5,43.7,30.6,44.1,30.6,44.5z"/>
		
			<linearGradient id="SVGID_4_" gradientUnits="userSpaceOnUse" x1="7023.3018" y1="40.925" x2="7013.4487" y2="54.3905" gradientTransform="matrix(-1 0 0 1 7064.3594 0)">
			<stop  offset="0" style="stop-color:#F2D42A"/>
			<stop  offset="1" style="stop-color:#EA8042"/>
		</linearGradient>
		<path class="st6" d="M32.8,51.9c0.1,0.1,0.1,0.2,0.2,0.3C33,52.1,32.9,52,32.8,51.9c-0.5-0.7-0.8-1.3-1.1-2
			c-0.4-1.2-0.1-2.8,2.1-4.6c0,0,9-6.7,15.6-15.3c3,3.9,5.4,8.2,6.3,12.4c0.1,0.7,0.2,1.4,0.2,2.1c0,1-0.1,2-0.3,3c0,0,0,0.1,0,0.1
			c0,0.2-0.1,0.3-0.1,0.5c-0.3,1-0.6,2-1.2,2.9c-0.7,1.4-1.7,2.6-2.8,3.6c0,0,0,0,0,0l0,0c-2.2,1.9-5.1,3.1-8.2,3.1
			c-6.8,0-12.4-5.6-12.7-12.7c0,0.7,0.2,2.7,1.2,4.9C32,50.7,32.5,51.4,32.8,51.9z"/>
	</g>
</g>
</svg>
