<svg xmlns="http://www.w3.org/2000/svg" viewBox="0 0 257.55 257.55"><defs><style>.cls-1{fill:none;stroke:#023f68;stroke-miterlimit:10;stroke-width:1.55px;}.cls-2{fill:#3ff2c1;}.cls-3{fill:#fff;}</style></defs><title>Standardized</title><g id="Layer_2" data-name="Layer 2"><g id="Design"><circle class="cls-1" cx="128.77" cy="128.77" r="128"/><circle class="cls-1" cx="128.46" cy="71.43" r="39.83"/><circle class="cls-2" cx="128.46" cy="71.43" r="33.52"/><polygon class="cls-1" points="214.5 161.26 198.09 188.68 230.91 188.68 214.5 161.26"/><polyline class="cls-1" points="191.46 135.27 195.68 158.94 172.06 154.45"/><rect class="cls-3" x="187.9" y="131.4" width="6.31" height="6.31" transform="translate(421.53 95.94) rotate(135.33)"/><rect class="cls-3" x="168.66" y="150.42" width="6.31" height="6.31" transform="translate(401.98 142) rotate(135.33)"/><line class="cls-1" x1="153.11" y1="116.37" x2="195.67" y2="158.94"/><rect class="cls-1" x="30.81" y="166.07" width="23.21" height="23.21" transform="translate(-53.22 333.31) rotate(-135)"/><polyline class="cls-1" points="65.45 135.27 61.24 158.94 84.86 154.45"/><rect class="cls-3" x="62.71" y="131.4" width="6.31" height="6.31" transform="translate(113.62 -7.44) rotate(44.67)"/><rect class="cls-3" x="81.94" y="150.42" width="6.31" height="6.31" transform="translate(132.54 -15.47) rotate(44.67)"/><line class="cls-1" x1="103.81" y1="116.37" x2="61.24" y2="158.94"/><polyline class="cls-1" points="142.85 172.44 129.09 192.15 115.56 172.28"/><rect class="cls-3" x="139.91" y="168.49" width="6.31" height="6.31" transform="translate(285.13 344.11) rotate(-179.67)"/><rect class="cls-3" x="112.86" y="168.33" width="6.31" height="6.31" transform="translate(231.03 343.64) rotate(-179.67)"/><line class="cls-1" x1="129.09" y1="125.06" x2="129.09" y2="192.15"/><circle class="cls-1" cx="129.15" cy="218.71" r="13.7"/><polygon class="cls-1" points="141.06 84.23 131.62 84.23 129.09 74.79 138.53 74.79 141.06 84.23"/><polygon class="cls-1" points="117.12 74.79 107.68 74.79 105.15 65.35 114.59 65.35 117.12 74.79"/><polygon class="cls-1" points="138.53 74.79 147.97 74.79 151.76 60.63 142.32 60.63 138.53 74.79"/><polygon class="cls-1" points="129.09 74.79 119.65 84.23 117.12 74.79 126.56 65.35 129.09 74.79"/></g></g></svg>