<?xml version="1.0" encoding="utf-8"?>
<!-- Generator: Adobe Illustrator 20.1.0, SVG Export Plug-In . SVG Version: 6.00 Build 0)  -->
<svg version="1.1" id="Layer_1" xmlns="http://www.w3.org/2000/svg" xmlns:xlink="http://www.w3.org/1999/xlink" x="0px" y="0px"
	 viewBox="0 0 270 270" style="enable-background:new 0 0 270 270;" xml:space="preserve">
<style type="text/css">
	.st0{fill:none;stroke:#0E4168;stroke-width:1.5468;stroke-miterlimit:10;}
	.st1{fill:#FFFFFF;stroke:#0E4168;stroke-width:1.5468;stroke-miterlimit:10;}
	.st2{fill:#72C7AE;}
</style>
<circle class="st0" cx="135" cy="135" r="128"/>
<g>
	<circle class="st1" cx="135" cy="210.8" r="39.8"/>
	<circle class="st2" cx="135" cy="210.8" r="33.5"/>
	<g>
		<circle class="st0" cx="135.6" cy="194" r="6"/>
		<polyline class="st0" points="128.4,233.6 135.6,233.6 135.6,200 		"/>
		<line class="st0" x1="135.6" y1="220.9" x2="128.4" y2="220.9"/>
		<line class="st0" x1="129.9" y1="227.3" x2="135.6" y2="227.3"/>
	</g>
</g>
<polyline class="st1" points="164,131.4 173.1,146.3 156.7,146.3 140.3,146.3 149.4,131.4 "/>
<rect x="107.3" y="65.3" class="st1" width="98.7" height="66"/>
<rect x="114.3" y="72.3" class="st1" width="84.7" height="47"/>
<g>
	<path class="st1" d="M128.2,154.4h-51c-2.6,0-4.6-2.1-4.6-4.6V43.9c0-2.6,2.1-4.6,4.6-4.6h51c2.6,0,4.6,2.1,4.6,4.6v105.9
		C132.9,152.4,130.8,154.4,128.2,154.4z"/>
	<circle class="st1" cx="102.8" cy="147" r="4.3"/>
	<rect x="78.7" y="51.8" class="st1" width="48.1" height="87.8"/>
</g>
</svg>
