<?xml version="1.0" encoding="utf-8"?>
<!-- Generator: Adobe Illustrator 20.1.0, SVG Export Plug-In . SVG Version: 6.00 Build 0)  -->
<svg version="1.1" id="Layer_1" xmlns="http://www.w3.org/2000/svg" xmlns:xlink="http://www.w3.org/1999/xlink" x="0px" y="0px"
	 viewBox="0 0 217.6 31.7" style="enable-background:new 0 0 217.6 31.7;" xml:space="preserve">
<style type="text/css">
	.st0{fill:#FFFFFF;}
</style>
<g>
	<path class="st0" d="M46.1,19h11.5l5.1-19H50l-4.7,17.5c-0.3,1-1.1,1.5-1.9,1.5h-9.9c-0.9,0-1.4-0.5-1.7-1.3L28.8,6.3L17,18.1
		c-0.3,0.3-1.1,0.3-1.3-0.3l0,0L12.7,6.3H0L3.4,19h11.4c0.9,0,1.4,0.5,1.7,1.3l0,0l3.1,11.4l11.8-11.8c0.4-0.4,1-0.2,1.2,0.2l0,0
		l3.1,11.6h12.7l-3.1-11.4l0,0C45.1,19.6,45.4,19,46.1,19z"/>
	<g>
		<path class="st0" d="M92.7,25.4l-5-16h-0.1l-5,16h-2l-5.1-19h1.9l4.3,16.4h0.2l5-16.4h1.9l5.1,16.4h0.1L98,6.4h1.8l-5.1,19H92.7z"
			/>
		<path class="st0" d="M105.8,25.4v-19h1.8v19H105.8z"/>
		<path class="st0" d="M115.1,6.4h5.9c2.6,0,4.4,0.2,5.5,0.7c1.1,0.4,1.7,1.3,2,2.5c0.3,1.2,0.4,3.3,0.4,6.4s-0.1,5.1-0.4,6.4
			c-0.3,1.2-1,2-2,2.5c-1.1,0.4-2.9,0.7-5.5,0.7h-5.9V6.4z M120.5,23.7c2.3,0,3.9-0.1,4.7-0.4c0.8-0.2,1.3-0.9,1.6-1.8
			c0.2-1,0.4-2.9,0.4-5.6c0-2.7-0.1-4.6-0.4-5.6c-0.2-1-0.8-1.6-1.6-1.9c-0.8-0.2-2.4-0.4-4.7-0.4h-3.7v15.7H120.5z"/>
		<path class="st0" d="M159.3,25.4l-7.2-19h1.9l6.3,16.7h0.1l6.3-16.7h1.8l-7.2,19H159.3z"/>
		<path class="st0" d="M174.1,25.4v-19h1.8v19H174.1z"/>
		<path class="st0" d="M196.3,25.4L185.4,9.7h-0.1v15.7h-1.7v-19h1.8l10.8,15.5h0.1V6.4h1.7v19H196.3z"/>
		<polygon class="st0" points="137.6,23.7 137.6,16.6 146.6,16.6 146.6,14.9 137.6,14.9 137.6,8 148,8 147.5,6.4 135.8,6.4 
			135.8,25.4 147.5,25.4 148,23.7 		"/>
		<polygon class="st0" points="207.3,23.7 207.3,16.6 216.3,16.6 216.3,14.9 207.3,14.9 207.3,8 217.6,8 217.2,6.4 205.5,6.4 
			205.5,25.4 217.2,25.4 217.6,23.7 		"/>
	</g>
</g>
</svg>
