<?xml version="1.0" encoding="utf-8"?>
<!-- Generator: Adobe Illustrator 20.1.0, SVG Export Plug-In . SVG Version: 6.00 Build 0)  -->
<svg version="1.1" id="Layer_1" xmlns="http://www.w3.org/2000/svg" xmlns:xlink="http://www.w3.org/1999/xlink" x="0px" y="0px"
	 viewBox="0 0 425 425" style="enable-background:new 0 0 425 425;" xml:space="preserve">
<style type="text/css">
	.st0{fill:none;stroke:#FFFFFF;stroke-width:2;stroke-miterlimit:10;}
</style>
<g>
	<path class="st0" d="M406.4,212.5c0-11.9,13.4-24.8,11.4-36.2c-2-11.7-19.1-19.2-23.1-30.1c-4-11.1,4.1-27.8-1.7-37.9
		c-5.9-10.2-24.5-11.4-32-20.4c-7.5-9-5.6-27.5-14.5-35.1c-8.9-7.5-26.9-2.4-37-8.3c-10.1-5.8-14.6-24-25.6-28c-10.9-4-26,7-37.6,5
		c-11.3-2-21.8-17.5-33.7-17.5c-11.9,0-22.3,15.5-33.7,17.5c-11.7,2-26.7-8.9-37.6-5c-11.1,4-15.6,22.2-25.6,28
		c-10.2,5.9-28.1,0.7-37,8.3c-9,7.5-7,26.1-14.5,35.1c-7.5,8.9-26.1,10.2-32,20.4c-5.8,10.1,2.3,26.8-1.7,37.9
		c-4,10.9-21,18.5-23.1,30.1c-2,11.3,11.4,24.3,11.4,36.2c0,11.9-13.4,24.8-11.4,36.2c2,11.7,19.1,19.2,23.1,30.1
		c4,11.1-4.1,27.8,1.7,37.9c5.9,10.2,24.5,11.4,32,20.4c7.5,9,5.6,27.5,14.5,35.1c8.9,7.5,26.9,2.4,37,8.3c10.1,5.8,14.6,24,25.6,28
		c10.9,4,26-7,37.6-5c11.3,2,21.8,17.5,33.7,17.5c11.9,0,22.3-15.5,33.7-17.5c11.7-2,26.7,8.9,37.6,5c11.1-4,15.6-22.2,25.6-28
		c10.2-5.9,28.1-0.7,37-8.3c9-7.5,7-26.1,14.5-35.1c7.5-8.9,26.1-10.2,32-20.4c5.8-10.1-2.3-26.8,1.7-37.9c4-10.9,21-18.5,23.1-30.1
		C419.8,237.3,406.4,224.4,406.4,212.5z"/>
</g>
<circle class="st0" cx="212.5" cy="212.5" r="163.3"/>
<path class="st0" d="M263.7,227.2h42.1l18.7-69.9H278l-17.2,64.3c-1,3.5-4,5.6-7.1,5.6h-36.2c-3.2,0-5.3-1.8-6.1-4.7l-11.2-41.9
	l-43.2,43.2c-1.2,1.2-4.1,1-4.7-1.2l0,0l-11.3-42H94.4l12.5,46.6h41.8c3.2,0,5.3,1.8,6.1,4.7l0,0l11.2,41.9l43.5-43.5
	c1.4-1.4,3.8-0.9,4.2,0.9l0,0l11.4,42.5h46.6l-11.2-41.9l0,0C259.8,229.4,261.1,227.2,263.7,227.2z"/>
</svg>
