<?xml version="1.0" standalone="no"?>
<!DOCTYPE svg PUBLIC "-//W3C//DTD SVG 20010904//EN"
 "http://www.w3.org/TR/2001/REC-SVG-20010904/DTD/svg10.dtd">
<svg version="1.0" xmlns="http://www.w3.org/2000/svg"
 width="700.000000pt" height="700.000000pt" viewBox="0 0 700.000000 700.000000"
 preserveAspectRatio="xMidYMid meet">
<metadata>
Created by potrace 1.11, written by Peter Selinger 2001-2013
</metadata>
<g transform="translate(0.000000,700.000000) scale(0.100000,-0.100000)"
fill="#000000" stroke="none">
<path d="M5570 5244 c-6 -14 -10 -30 -10 -35 0 -6 -18 -74 -39 -152 -22 -78
-74 -270 -116 -427 -42 -157 -96 -357 -120 -445 -24 -88 -87 -322 -141 -520
-53 -198 -105 -377 -115 -398 -23 -44 -86 -93 -140 -107 -24 -7 -253 -10 -620
-10 -470 1 -587 4 -608 15 -34 17 -65 53 -79 90 -9 23 -111 384 -137 485 -2 8
-11 40 -20 70 -8 30 -17 63 -20 73 -7 31 -132 481 -144 522 -5 17 -17 61 -27
98 l-17 68 -671 -670 -671 -670 -48 3 c-59 3 -69 16 -97 121 -12 44 -26 94
-31 110 -9 29 -56 200 -98 355 -11 41 -52 190 -91 330 -39 140 -73 263 -75
274 -2 10 -11 43 -20 72 l-16 54 -699 0 c-385 0 -700 -1 -700 -2 0 -2 9 -37
21 -78 11 -41 21 -82 23 -90 2 -8 21 -77 41 -154 20 -76 38 -145 40 -155 2 -9
18 -70 36 -136 30 -115 116 -444 124 -475 14 -61 85 -323 88 -326 2 -2 293 -4
648 -4 706 -1 700 -1 751 -61 25 -29 40 -75 88 -254 10 -38 42 -153 70 -255
28 -102 58 -210 66 -240 16 -62 36 -133 95 -340 23 -80 43 -154 45 -165 2 -11
9 -40 17 -64 l13 -45 660 661 c364 363 671 664 683 668 39 12 78 -4 94 -38 8
-18 50 -160 92 -317 43 -157 115 -422 160 -590 46 -168 88 -323 94 -345 l10
-40 711 0 c390 0 710 3 710 6 0 3 -7 28 -15 55 -8 27 -21 74 -29 104 -8 30
-31 114 -51 185 -20 72 -45 162 -55 200 -10 39 -35 129 -55 200 -75 269 -127
460 -129 472 -1 7 -5 16 -9 19 -19 19 7 136 38 172 l23 27 667 5 668 5 64 240
c35 132 79 296 98 365 35 128 247 920 292 1090 27 105 100 375 109 403 5 16
-33 17 -706 17 l-710 0 -10 -26z"/>
</g>
</svg>
