<?xml version="1.0" encoding="utf-8"?>
<!-- Generator: Adobe Illustrator 20.1.0, SVG Export Plug-In . SVG Version: 6.00 Build 0)  -->
<svg version="1.1" id="Layer_1" xmlns="http://www.w3.org/2000/svg" xmlns:xlink="http://www.w3.org/1999/xlink" x="0px" y="0px"
	 viewBox="0 0 258 258" style="enable-background:new 0 0 258 258;" xml:space="preserve">
<style type="text/css">
	.st0{fill:none;stroke:#0E4168;stroke-width:2;stroke-miterlimit:10;}
	.st1{fill:#FFFFFF;}
</style>
<circle class="st0" cx="129" cy="129" r="128"/>
<path class="st0" d="M218.2,114.1V98.5L206.5,96c-1-4.2-2.7-8.1-4.9-11.7l6.5-10l-11-11l-10,6.5c-3.6-2.2-7.5-3.8-11.7-4.9
	l-2.5-11.7h-15.6l-2.5,11.7c-4.2,1-8.1,2.7-11.7,4.9l-10-6.5l-11,11l6.5,10c-2.2,3.6-3.8,7.5-4.9,11.7L112,98.5v15.6l11.7,2.5
	c1,4.2,2.7,8.1,4.9,11.7l-6.5,10l11,11l10-6.5c3.6,2.2,7.5,3.8,11.7,4.9l2.5,11.7h15.6l2.5-11.7c4.2-1,8.1-2.7,11.7-4.9l10,6.5
	l11-11l-6.5-10c2.2-3.6,3.8-7.5,4.9-11.7L218.2,114.1z"/>
<circle class="st0" cx="165.1" cy="106.3" r="27.6"/>
<path class="st1" d="M165.1,125.8c-10.8,0-19.6-8.8-19.6-19.6s8.8-19.6,19.6-19.6c10.8,0,19.6,8.8,19.6,19.6
	S175.9,125.8,165.1,125.8z"/>
<path class="st0" d="M124.4,161.7v-10.6l-11.3-3c-0.7-2.7-1.8-5.3-3.2-7.7l5.9-10.1l-7.5-7.5l-10.1,5.9c-2.4-1.4-5-2.5-7.7-3.2
	l-3-11.3H76.8l-3,11.3c-2.7,0.7-5.2,1.8-7.7,3.2l-10.1-5.9l-7.5,7.5l5.9,10.1c-1.4,2.4-2.5,5-3.2,7.7l-11.3,3v10.6l11.3,3
	c0.7,2.7,1.8,5.2,3.2,7.7l-5.9,10.1l7.5,7.5l10.1-5.9c2.4,1.4,5,2.5,7.7,3.2l3,11.3h10.6l3-11.3c2.7-0.7,5.2-1.8,7.7-3.2l10.1,5.9
	l7.5-7.5l-5.9-10.1c1.4-2.4,2.5-5,3.2-7.7L124.4,161.7z"/>
<ellipse transform="matrix(0.7071 -0.7071 0.7071 0.7071 -86.5545 103.8566)" class="st0" cx="82.1" cy="156.4" rx="19.9" ry="19.9"/>
<path class="st1" d="M82.1,168.3c-3.2,0-6.2-1.2-8.4-3.5c-2.2-2.2-3.5-5.2-3.5-8.4s1.2-6.2,3.5-8.4c2.2-2.2,5.2-3.5,8.4-3.5
	s6.2,1.2,8.4,3.5c2.2,2.2,3.5,5.2,3.5,8.4s-1.2,6.2-3.5,8.4C88.3,167.1,85.3,168.3,82.1,168.3z"/>
</svg>
