<?xml version="1.0" encoding="utf-8"?>
<!-- Generator: Adobe Illustrator 20.1.0, SVG Export Plug-In . SVG Version: 6.00 Build 0)  -->
<svg version="1.1" id="Layer_1" xmlns="http://www.w3.org/2000/svg" xmlns:xlink="http://www.w3.org/1999/xlink" x="0px" y="0px"
	 viewBox="0 0 47.3 23.9" style="enable-background:new 0 0 47.3 23.9;" xml:space="preserve">
<style type="text/css">
	.st0{fill:url(#SVGID_1_);}
</style>
<linearGradient id="SVGID_1_" gradientUnits="userSpaceOnUse" x1="37.8099" y1="-4.9983" x2="7.6265" y2="24.8342">
	<stop  offset="0" style="stop-color:#72C7AE"/>
	<stop  offset="0.1776" style="stop-color:#74C3B3"/>
	<stop  offset="0.4896" style="stop-color:#77BDC2"/>
	<stop  offset="0.8966" style="stop-color:#7AB1D6"/>
	<stop  offset="1" style="stop-color:#7AAEDD"/>
</linearGradient>
<path class="st0" d="M34.8,14.4h8.7L47.3,0h-9.6l-3.5,13.2c-0.2,0.7-0.8,1.1-1.5,1.1h-7.4c-0.7,0-1.1-0.4-1.3-1l-2.3-8.6l-8.9,8.9
	c-0.3,0.3-0.8,0.2-1-0.2l0,0L9.6,4.8H0l2.6,9.6h8.6c0.7,0,1.1,0.4,1.3,1l0,0l2.3,8.6l8.9-8.9c0.3-0.3,0.8-0.2,0.9,0.2l0,0l2.3,8.7
	h9.6l-2.3-8.6l0,0C34,14.8,34.3,14.4,34.8,14.4z"/>
</svg>
